<?xml version="1.0" encoding="utf-8" standalone="no"?>
<!DOCTYPE svg PUBLIC "-//W3C//DTD SVG 1.1//EN"
  "http://www.w3.org/Graphics/SVG/1.1/DTD/svg11.dtd">
<svg xmlns:xlink="http://www.w3.org/1999/xlink" width="648pt" height="388.8pt" viewBox="0 0 648 388.8" xmlns="http://www.w3.org/2000/svg" version="1.1">
 <metadata>
  <rdf:RDF xmlns:dc="http://purl.org/dc/elements/1.1/" xmlns:cc="http://creativecommons.org/ns#" xmlns:rdf="http://www.w3.org/1999/02/22-rdf-syntax-ns#">
   <cc:Work>
    <dc:type rdf:resource="http://purl.org/dc/dcmitype/StillImage"/>
    <dc:date>2026-04-28T10:43:49.812306</dc:date>
    <dc:format>image/svg+xml</dc:format>
    <dc:creator>
     <cc:Agent>
      <dc:title>Matplotlib v3.10.9, https://matplotlib.org/</dc:title>
     </cc:Agent>
    </dc:creator>
   </cc:Work>
  </rdf:RDF>
 </metadata>
 <defs>
  <style type="text/css">*{stroke-linejoin: round; stroke-linecap: butt}</style>
 </defs>
 <g id="figure_1">
  <g id="patch_1">
   <path d="M 0 388.8 
L 648 388.8 
L 648 0 
L 0 0 
z
" style="fill: #ffffff"/>
  </g>
  <g id="axes_1">
   <g id="patch_2">
    <path d="M 47.72 346.84 
L 637.2 346.84 
L 637.2 26.88 
L 47.72 26.88 
z
" style="fill: #ffffff"/>
   </g>
   <g id="matplotlib.axis_1">
    <g id="xtick_1">
     <g id="line2d_1">
      <path d="M 74.514545 346.84 
L 74.514545 26.88 
" clip-path="url(#p447fb02f3b)" style="fill: none; stroke-dasharray: 0.7,1.155; stroke-dashoffset: 0; stroke: #b0b0b0; stroke-opacity: 0.6; stroke-width: 0.7"/>
     </g>
     <g id="line2d_2">
      <defs>
       <path id="m5a9ac5fdfe" d="M 0 0 
L 0 3.5 
" style="stroke: #000000; stroke-width: 0.8"/>
      </defs>
      <g>
       <use xlink:href="#m5a9ac5fdfe" x="74.514545" y="346.84" style="stroke: #000000; stroke-width: 0.8"/>
      </g>
     </g>
     <g id="text_1">
      <!-- 0 -->
      <g transform="translate(71.333295 361.438438) scale(0.1 -0.1)">
       <defs>
        <path id="DejaVuSans-30" d="M 2034 4250 
Q 1547 4250 1301 3770 
Q 1056 3291 1056 2328 
Q 1056 1369 1301 889 
Q 1547 409 2034 409 
Q 2525 409 2770 889 
Q 3016 1369 3016 2328 
Q 3016 3291 2770 3770 
Q 2525 4250 2034 4250 
z
M 2034 4750 
Q 2819 4750 3233 4129 
Q 3647 3509 3647 2328 
Q 3647 1150 3233 529 
Q 2819 -91 2034 -91 
Q 1250 -91 836 529 
Q 422 1150 422 2328 
Q 422 3509 836 4129 
Q 1250 4750 2034 4750 
z
" transform="scale(0.015625)"/>
       </defs>
       <use xlink:href="#DejaVuSans-30"/>
      </g>
     </g>
    </g>
    <g id="xtick_2">
     <g id="line2d_3">
      <path d="M 163.844585 346.84 
L 163.844585 26.88 
" clip-path="url(#p447fb02f3b)" style="fill: none; stroke-dasharray: 0.7,1.155; stroke-dashoffset: 0; stroke: #b0b0b0; stroke-opacity: 0.6; stroke-width: 0.7"/>
     </g>
     <g id="line2d_4">
      <g>
       <use xlink:href="#m5a9ac5fdfe" x="163.844585" y="346.84" style="stroke: #000000; stroke-width: 0.8"/>
      </g>
     </g>
     <g id="text_2">
      <!-- 1000 -->
      <g transform="translate(151.119585 361.438438) scale(0.1 -0.1)">
       <defs>
        <path id="DejaVuSans-31" d="M 794 531 
L 1825 531 
L 1825 4091 
L 703 3866 
L 703 4441 
L 1819 4666 
L 2450 4666 
L 2450 531 
L 3481 531 
L 3481 0 
L 794 0 
L 794 531 
z
" transform="scale(0.015625)"/>
       </defs>
       <use xlink:href="#DejaVuSans-31"/>
       <use xlink:href="#DejaVuSans-30" transform="translate(63.623047 0)"/>
       <use xlink:href="#DejaVuSans-30" transform="translate(127.246094 0)"/>
       <use xlink:href="#DejaVuSans-30" transform="translate(190.869141 0)"/>
      </g>
     </g>
    </g>
    <g id="xtick_3">
     <g id="line2d_5">
      <path d="M 253.174625 346.84 
L 253.174625 26.88 
" clip-path="url(#p447fb02f3b)" style="fill: none; stroke-dasharray: 0.7,1.155; stroke-dashoffset: 0; stroke: #b0b0b0; stroke-opacity: 0.6; stroke-width: 0.7"/>
     </g>
     <g id="line2d_6">
      <g>
       <use xlink:href="#m5a9ac5fdfe" x="253.174625" y="346.84" style="stroke: #000000; stroke-width: 0.8"/>
      </g>
     </g>
     <g id="text_3">
      <!-- 2000 -->
      <g transform="translate(240.449625 361.438438) scale(0.1 -0.1)">
       <defs>
        <path id="DejaVuSans-32" d="M 1228 531 
L 3431 531 
L 3431 0 
L 469 0 
L 469 531 
Q 828 903 1448 1529 
Q 2069 2156 2228 2338 
Q 2531 2678 2651 2914 
Q 2772 3150 2772 3378 
Q 2772 3750 2511 3984 
Q 2250 4219 1831 4219 
Q 1534 4219 1204 4116 
Q 875 4013 500 3803 
L 500 4441 
Q 881 4594 1212 4672 
Q 1544 4750 1819 4750 
Q 2544 4750 2975 4387 
Q 3406 4025 3406 3419 
Q 3406 3131 3298 2873 
Q 3191 2616 2906 2266 
Q 2828 2175 2409 1742 
Q 1991 1309 1228 531 
z
" transform="scale(0.015625)"/>
       </defs>
       <use xlink:href="#DejaVuSans-32"/>
       <use xlink:href="#DejaVuSans-30" transform="translate(63.623047 0)"/>
       <use xlink:href="#DejaVuSans-30" transform="translate(127.246094 0)"/>
       <use xlink:href="#DejaVuSans-30" transform="translate(190.869141 0)"/>
      </g>
     </g>
    </g>
    <g id="xtick_4">
     <g id="line2d_7">
      <path d="M 342.504665 346.84 
L 342.504665 26.88 
" clip-path="url(#p447fb02f3b)" style="fill: none; stroke-dasharray: 0.7,1.155; stroke-dashoffset: 0; stroke: #b0b0b0; stroke-opacity: 0.6; stroke-width: 0.7"/>
     </g>
     <g id="line2d_8">
      <g>
       <use xlink:href="#m5a9ac5fdfe" x="342.504665" y="346.84" style="stroke: #000000; stroke-width: 0.8"/>
      </g>
     </g>
     <g id="text_4">
      <!-- 3000 -->
      <g transform="translate(329.779665 361.438438) scale(0.1 -0.1)">
       <defs>
        <path id="DejaVuSans-33" d="M 2597 2516 
Q 3050 2419 3304 2112 
Q 3559 1806 3559 1356 
Q 3559 666 3084 287 
Q 2609 -91 1734 -91 
Q 1441 -91 1130 -33 
Q 819 25 488 141 
L 488 750 
Q 750 597 1062 519 
Q 1375 441 1716 441 
Q 2309 441 2620 675 
Q 2931 909 2931 1356 
Q 2931 1769 2642 2001 
Q 2353 2234 1838 2234 
L 1294 2234 
L 1294 2753 
L 1863 2753 
Q 2328 2753 2575 2939 
Q 2822 3125 2822 3475 
Q 2822 3834 2567 4026 
Q 2313 4219 1838 4219 
Q 1578 4219 1281 4162 
Q 984 4106 628 3988 
L 628 4550 
Q 988 4650 1302 4700 
Q 1616 4750 1894 4750 
Q 2613 4750 3031 4423 
Q 3450 4097 3450 3541 
Q 3450 3153 3228 2886 
Q 3006 2619 2597 2516 
z
" transform="scale(0.015625)"/>
       </defs>
       <use xlink:href="#DejaVuSans-33"/>
       <use xlink:href="#DejaVuSans-30" transform="translate(63.623047 0)"/>
       <use xlink:href="#DejaVuSans-30" transform="translate(127.246094 0)"/>
       <use xlink:href="#DejaVuSans-30" transform="translate(190.869141 0)"/>
      </g>
     </g>
    </g>
    <g id="xtick_5">
     <g id="line2d_9">
      <path d="M 431.834705 346.84 
L 431.834705 26.88 
" clip-path="url(#p447fb02f3b)" style="fill: none; stroke-dasharray: 0.7,1.155; stroke-dashoffset: 0; stroke: #b0b0b0; stroke-opacity: 0.6; stroke-width: 0.7"/>
     </g>
     <g id="line2d_10">
      <g>
       <use xlink:href="#m5a9ac5fdfe" x="431.834705" y="346.84" style="stroke: #000000; stroke-width: 0.8"/>
      </g>
     </g>
     <g id="text_5">
      <!-- 4000 -->
      <g transform="translate(419.109705 361.438438) scale(0.1 -0.1)">
       <defs>
        <path id="DejaVuSans-34" d="M 2419 4116 
L 825 1625 
L 2419 1625 
L 2419 4116 
z
M 2253 4666 
L 3047 4666 
L 3047 1625 
L 3713 1625 
L 3713 1100 
L 3047 1100 
L 3047 0 
L 2419 0 
L 2419 1100 
L 313 1100 
L 313 1709 
L 2253 4666 
z
" transform="scale(0.015625)"/>
       </defs>
       <use xlink:href="#DejaVuSans-34"/>
       <use xlink:href="#DejaVuSans-30" transform="translate(63.623047 0)"/>
       <use xlink:href="#DejaVuSans-30" transform="translate(127.246094 0)"/>
       <use xlink:href="#DejaVuSans-30" transform="translate(190.869141 0)"/>
      </g>
     </g>
    </g>
    <g id="xtick_6">
     <g id="line2d_11">
      <path d="M 521.164745 346.84 
L 521.164745 26.88 
" clip-path="url(#p447fb02f3b)" style="fill: none; stroke-dasharray: 0.7,1.155; stroke-dashoffset: 0; stroke: #b0b0b0; stroke-opacity: 0.6; stroke-width: 0.7"/>
     </g>
     <g id="line2d_12">
      <g>
       <use xlink:href="#m5a9ac5fdfe" x="521.164745" y="346.84" style="stroke: #000000; stroke-width: 0.8"/>
      </g>
     </g>
     <g id="text_6">
      <!-- 5000 -->
      <g transform="translate(508.439745 361.438438) scale(0.1 -0.1)">
       <defs>
        <path id="DejaVuSans-35" d="M 691 4666 
L 3169 4666 
L 3169 4134 
L 1269 4134 
L 1269 2991 
Q 1406 3038 1543 3061 
Q 1681 3084 1819 3084 
Q 2600 3084 3056 2656 
Q 3513 2228 3513 1497 
Q 3513 744 3044 326 
Q 2575 -91 1722 -91 
Q 1428 -91 1123 -41 
Q 819 9 494 109 
L 494 744 
Q 775 591 1075 516 
Q 1375 441 1709 441 
Q 2250 441 2565 725 
Q 2881 1009 2881 1497 
Q 2881 1984 2565 2268 
Q 2250 2553 1709 2553 
Q 1456 2553 1204 2497 
Q 953 2441 691 2322 
L 691 4666 
z
" transform="scale(0.015625)"/>
       </defs>
       <use xlink:href="#DejaVuSans-35"/>
       <use xlink:href="#DejaVuSans-30" transform="translate(63.623047 0)"/>
       <use xlink:href="#DejaVuSans-30" transform="translate(127.246094 0)"/>
       <use xlink:href="#DejaVuSans-30" transform="translate(190.869141 0)"/>
      </g>
     </g>
    </g>
    <g id="xtick_7">
     <g id="line2d_13">
      <path d="M 610.494785 346.84 
L 610.494785 26.88 
" clip-path="url(#p447fb02f3b)" style="fill: none; stroke-dasharray: 0.7,1.155; stroke-dashoffset: 0; stroke: #b0b0b0; stroke-opacity: 0.6; stroke-width: 0.7"/>
     </g>
     <g id="line2d_14">
      <g>
       <use xlink:href="#m5a9ac5fdfe" x="610.494785" y="346.84" style="stroke: #000000; stroke-width: 0.8"/>
      </g>
     </g>
     <g id="text_7">
      <!-- 6000 -->
      <g transform="translate(597.769785 361.438438) scale(0.1 -0.1)">
       <defs>
        <path id="DejaVuSans-36" d="M 2113 2584 
Q 1688 2584 1439 2293 
Q 1191 2003 1191 1497 
Q 1191 994 1439 701 
Q 1688 409 2113 409 
Q 2538 409 2786 701 
Q 3034 994 3034 1497 
Q 3034 2003 2786 2293 
Q 2538 2584 2113 2584 
z
M 3366 4563 
L 3366 3988 
Q 3128 4100 2886 4159 
Q 2644 4219 2406 4219 
Q 1781 4219 1451 3797 
Q 1122 3375 1075 2522 
Q 1259 2794 1537 2939 
Q 1816 3084 2150 3084 
Q 2853 3084 3261 2657 
Q 3669 2231 3669 1497 
Q 3669 778 3244 343 
Q 2819 -91 2113 -91 
Q 1303 -91 875 529 
Q 447 1150 447 2328 
Q 447 3434 972 4092 
Q 1497 4750 2381 4750 
Q 2619 4750 2861 4703 
Q 3103 4656 3366 4563 
z
" transform="scale(0.015625)"/>
       </defs>
       <use xlink:href="#DejaVuSans-36"/>
       <use xlink:href="#DejaVuSans-30" transform="translate(63.623047 0)"/>
       <use xlink:href="#DejaVuSans-30" transform="translate(127.246094 0)"/>
       <use xlink:href="#DejaVuSans-30" transform="translate(190.869141 0)"/>
      </g>
     </g>
    </g>
    <g id="text_8">
     <!-- sweep -->
     <g transform="translate(326.438906 375.116562) scale(0.1 -0.1)">
      <defs>
       <path id="DejaVuSans-73" d="M 2834 3397 
L 2834 2853 
Q 2591 2978 2328 3040 
Q 2066 3103 1784 3103 
Q 1356 3103 1142 2972 
Q 928 2841 928 2578 
Q 928 2378 1081 2264 
Q 1234 2150 1697 2047 
L 1894 2003 
Q 2506 1872 2764 1633 
Q 3022 1394 3022 966 
Q 3022 478 2636 193 
Q 2250 -91 1575 -91 
Q 1294 -91 989 -36 
Q 684 19 347 128 
L 347 722 
Q 666 556 975 473 
Q 1284 391 1588 391 
Q 1994 391 2212 530 
Q 2431 669 2431 922 
Q 2431 1156 2273 1281 
Q 2116 1406 1581 1522 
L 1381 1569 
Q 847 1681 609 1914 
Q 372 2147 372 2553 
Q 372 3047 722 3315 
Q 1072 3584 1716 3584 
Q 2034 3584 2315 3537 
Q 2597 3491 2834 3397 
z
" transform="scale(0.015625)"/>
       <path id="DejaVuSans-77" d="M 269 3500 
L 844 3500 
L 1563 769 
L 2278 3500 
L 2956 3500 
L 3675 769 
L 4391 3500 
L 4966 3500 
L 4050 0 
L 3372 0 
L 2619 2869 
L 1863 0 
L 1184 0 
L 269 3500 
z
" transform="scale(0.015625)"/>
       <path id="DejaVuSans-65" d="M 3597 1894 
L 3597 1613 
L 953 1613 
Q 991 1019 1311 708 
Q 1631 397 2203 397 
Q 2534 397 2845 478 
Q 3156 559 3463 722 
L 3463 178 
Q 3153 47 2828 -22 
Q 2503 -91 2169 -91 
Q 1331 -91 842 396 
Q 353 884 353 1716 
Q 353 2575 817 3079 
Q 1281 3584 2069 3584 
Q 2775 3584 3186 3129 
Q 3597 2675 3597 1894 
z
M 3022 2063 
Q 3016 2534 2758 2815 
Q 2500 3097 2075 3097 
Q 1594 3097 1305 2825 
Q 1016 2553 972 2059 
L 3022 2063 
z
" transform="scale(0.015625)"/>
       <path id="DejaVuSans-70" d="M 1159 525 
L 1159 -1331 
L 581 -1331 
L 581 3500 
L 1159 3500 
L 1159 2969 
Q 1341 3281 1617 3432 
Q 1894 3584 2278 3584 
Q 2916 3584 3314 3078 
Q 3713 2572 3713 1747 
Q 3713 922 3314 415 
Q 2916 -91 2278 -91 
Q 1894 -91 1617 61 
Q 1341 213 1159 525 
z
M 3116 1747 
Q 3116 2381 2855 2742 
Q 2594 3103 2138 3103 
Q 1681 3103 1420 2742 
Q 1159 2381 1159 1747 
Q 1159 1113 1420 752 
Q 1681 391 2138 391 
Q 2594 391 2855 752 
Q 3116 1113 3116 1747 
z
" transform="scale(0.015625)"/>
      </defs>
      <use xlink:href="#DejaVuSans-73"/>
      <use xlink:href="#DejaVuSans-77" transform="translate(52.099609 0)"/>
      <use xlink:href="#DejaVuSans-65" transform="translate(133.886719 0)"/>
      <use xlink:href="#DejaVuSans-65" transform="translate(195.410156 0)"/>
      <use xlink:href="#DejaVuSans-70" transform="translate(256.933594 0)"/>
     </g>
    </g>
   </g>
   <g id="matplotlib.axis_2">
    <g id="ytick_1">
     <g id="line2d_15">
      <path d="M 47.72 342.154618 
L 637.2 342.154618 
" clip-path="url(#p447fb02f3b)" style="fill: none; stroke-dasharray: 0.7,1.155; stroke-dashoffset: 0; stroke: #b0b0b0; stroke-opacity: 0.6; stroke-width: 0.7"/>
     </g>
     <g id="line2d_16">
      <defs>
       <path id="me545ab5e91" d="M 0 0 
L -3.5 0 
" style="stroke: #000000; stroke-width: 0.8"/>
      </defs>
      <g>
       <use xlink:href="#me545ab5e91" x="47.72" y="342.154618" style="stroke: #000000; stroke-width: 0.8"/>
      </g>
     </g>
     <g id="text_9">
      <!-- 0.0 -->
      <g transform="translate(24.816875 345.953837) scale(0.1 -0.1)">
       <defs>
        <path id="DejaVuSans-2e" d="M 684 794 
L 1344 794 
L 1344 0 
L 684 0 
L 684 794 
z
" transform="scale(0.015625)"/>
       </defs>
       <use xlink:href="#DejaVuSans-30"/>
       <use xlink:href="#DejaVuSans-2e" transform="translate(63.623047 0)"/>
       <use xlink:href="#DejaVuSans-30" transform="translate(95.410156 0)"/>
      </g>
     </g>
    </g>
    <g id="ytick_2">
     <g id="line2d_17">
      <path d="M 47.72 291.680355 
L 637.2 291.680355 
" clip-path="url(#p447fb02f3b)" style="fill: none; stroke-dasharray: 0.7,1.155; stroke-dashoffset: 0; stroke: #b0b0b0; stroke-opacity: 0.6; stroke-width: 0.7"/>
     </g>
     <g id="line2d_18">
      <g>
       <use xlink:href="#me545ab5e91" x="47.72" y="291.680355" style="stroke: #000000; stroke-width: 0.8"/>
      </g>
     </g>
     <g id="text_10">
      <!-- 0.1 -->
      <g transform="translate(24.816875 295.479574) scale(0.1 -0.1)">
       <use xlink:href="#DejaVuSans-30"/>
       <use xlink:href="#DejaVuSans-2e" transform="translate(63.623047 0)"/>
       <use xlink:href="#DejaVuSans-31" transform="translate(95.410156 0)"/>
      </g>
     </g>
    </g>
    <g id="ytick_3">
     <g id="line2d_19">
      <path d="M 47.72 241.206092 
L 637.2 241.206092 
" clip-path="url(#p447fb02f3b)" style="fill: none; stroke-dasharray: 0.7,1.155; stroke-dashoffset: 0; stroke: #b0b0b0; stroke-opacity: 0.6; stroke-width: 0.7"/>
     </g>
     <g id="line2d_20">
      <g>
       <use xlink:href="#me545ab5e91" x="47.72" y="241.206092" style="stroke: #000000; stroke-width: 0.8"/>
      </g>
     </g>
     <g id="text_11">
      <!-- 0.2 -->
      <g transform="translate(24.816875 245.005311) scale(0.1 -0.1)">
       <use xlink:href="#DejaVuSans-30"/>
       <use xlink:href="#DejaVuSans-2e" transform="translate(63.623047 0)"/>
       <use xlink:href="#DejaVuSans-32" transform="translate(95.410156 0)"/>
      </g>
     </g>
    </g>
    <g id="ytick_4">
     <g id="line2d_21">
      <path d="M 47.72 190.731829 
L 637.2 190.731829 
" clip-path="url(#p447fb02f3b)" style="fill: none; stroke-dasharray: 0.7,1.155; stroke-dashoffset: 0; stroke: #b0b0b0; stroke-opacity: 0.6; stroke-width: 0.7"/>
     </g>
     <g id="line2d_22">
      <g>
       <use xlink:href="#me545ab5e91" x="47.72" y="190.731829" style="stroke: #000000; stroke-width: 0.8"/>
      </g>
     </g>
     <g id="text_12">
      <!-- 0.3 -->
      <g transform="translate(24.816875 194.531048) scale(0.1 -0.1)">
       <use xlink:href="#DejaVuSans-30"/>
       <use xlink:href="#DejaVuSans-2e" transform="translate(63.623047 0)"/>
       <use xlink:href="#DejaVuSans-33" transform="translate(95.410156 0)"/>
      </g>
     </g>
    </g>
    <g id="ytick_5">
     <g id="line2d_23">
      <path d="M 47.72 140.257567 
L 637.2 140.257567 
" clip-path="url(#p447fb02f3b)" style="fill: none; stroke-dasharray: 0.7,1.155; stroke-dashoffset: 0; stroke: #b0b0b0; stroke-opacity: 0.6; stroke-width: 0.7"/>
     </g>
     <g id="line2d_24">
      <g>
       <use xlink:href="#me545ab5e91" x="47.72" y="140.257567" style="stroke: #000000; stroke-width: 0.8"/>
      </g>
     </g>
     <g id="text_13">
      <!-- 0.4 -->
      <g transform="translate(24.816875 144.056785) scale(0.1 -0.1)">
       <use xlink:href="#DejaVuSans-30"/>
       <use xlink:href="#DejaVuSans-2e" transform="translate(63.623047 0)"/>
       <use xlink:href="#DejaVuSans-34" transform="translate(95.410156 0)"/>
      </g>
     </g>
    </g>
    <g id="ytick_6">
     <g id="line2d_25">
      <path d="M 47.72 89.783304 
L 637.2 89.783304 
" clip-path="url(#p447fb02f3b)" style="fill: none; stroke-dasharray: 0.7,1.155; stroke-dashoffset: 0; stroke: #b0b0b0; stroke-opacity: 0.6; stroke-width: 0.7"/>
     </g>
     <g id="line2d_26">
      <g>
       <use xlink:href="#me545ab5e91" x="47.72" y="89.783304" style="stroke: #000000; stroke-width: 0.8"/>
      </g>
     </g>
     <g id="text_14">
      <!-- 0.5 -->
      <g transform="translate(24.816875 93.582522) scale(0.1 -0.1)">
       <use xlink:href="#DejaVuSans-30"/>
       <use xlink:href="#DejaVuSans-2e" transform="translate(63.623047 0)"/>
       <use xlink:href="#DejaVuSans-35" transform="translate(95.410156 0)"/>
      </g>
     </g>
    </g>
    <g id="ytick_7">
     <g id="line2d_27">
      <path d="M 47.72 39.309041 
L 637.2 39.309041 
" clip-path="url(#p447fb02f3b)" style="fill: none; stroke-dasharray: 0.7,1.155; stroke-dashoffset: 0; stroke: #b0b0b0; stroke-opacity: 0.6; stroke-width: 0.7"/>
     </g>
     <g id="line2d_28">
      <g>
       <use xlink:href="#me545ab5e91" x="47.72" y="39.309041" style="stroke: #000000; stroke-width: 0.8"/>
      </g>
     </g>
     <g id="text_15">
      <!-- 0.6 -->
      <g transform="translate(24.816875 43.10826) scale(0.1 -0.1)">
       <use xlink:href="#DejaVuSans-30"/>
       <use xlink:href="#DejaVuSans-2e" transform="translate(63.623047 0)"/>
       <use xlink:href="#DejaVuSans-36" transform="translate(95.410156 0)"/>
      </g>
     </g>
    </g>
    <g id="text_16">
     <!-- tree density -->
     <g transform="translate(18.737188 216.838125) rotate(-90) scale(0.1 -0.1)">
      <defs>
       <path id="DejaVuSans-74" d="M 1172 4494 
L 1172 3500 
L 2356 3500 
L 2356 3053 
L 1172 3053 
L 1172 1153 
Q 1172 725 1289 603 
Q 1406 481 1766 481 
L 2356 481 
L 2356 0 
L 1766 0 
Q 1100 0 847 248 
Q 594 497 594 1153 
L 594 3053 
L 172 3053 
L 172 3500 
L 594 3500 
L 594 4494 
L 1172 4494 
z
" transform="scale(0.015625)"/>
       <path id="DejaVuSans-72" d="M 2631 2963 
Q 2534 3019 2420 3045 
Q 2306 3072 2169 3072 
Q 1681 3072 1420 2755 
Q 1159 2438 1159 1844 
L 1159 0 
L 581 0 
L 581 3500 
L 1159 3500 
L 1159 2956 
Q 1341 3275 1631 3429 
Q 1922 3584 2338 3584 
Q 2397 3584 2469 3576 
Q 2541 3569 2628 3553 
L 2631 2963 
z
" transform="scale(0.015625)"/>
       <path id="DejaVuSans-20" transform="scale(0.015625)"/>
       <path id="DejaVuSans-64" d="M 2906 2969 
L 2906 4863 
L 3481 4863 
L 3481 0 
L 2906 0 
L 2906 525 
Q 2725 213 2448 61 
Q 2172 -91 1784 -91 
Q 1150 -91 751 415 
Q 353 922 353 1747 
Q 353 2572 751 3078 
Q 1150 3584 1784 3584 
Q 2172 3584 2448 3432 
Q 2725 3281 2906 2969 
z
M 947 1747 
Q 947 1113 1208 752 
Q 1469 391 1925 391 
Q 2381 391 2643 752 
Q 2906 1113 2906 1747 
Q 2906 2381 2643 2742 
Q 2381 3103 1925 3103 
Q 1469 3103 1208 2742 
Q 947 2381 947 1747 
z
" transform="scale(0.015625)"/>
       <path id="DejaVuSans-6e" d="M 3513 2113 
L 3513 0 
L 2938 0 
L 2938 2094 
Q 2938 2591 2744 2837 
Q 2550 3084 2163 3084 
Q 1697 3084 1428 2787 
Q 1159 2491 1159 1978 
L 1159 0 
L 581 0 
L 581 3500 
L 1159 3500 
L 1159 2956 
Q 1366 3272 1645 3428 
Q 1925 3584 2291 3584 
Q 2894 3584 3203 3211 
Q 3513 2838 3513 2113 
z
" transform="scale(0.015625)"/>
       <path id="DejaVuSans-69" d="M 603 3500 
L 1178 3500 
L 1178 0 
L 603 0 
L 603 3500 
z
M 603 4863 
L 1178 4863 
L 1178 4134 
L 603 4134 
L 603 4863 
z
" transform="scale(0.015625)"/>
       <path id="DejaVuSans-79" d="M 2059 -325 
Q 1816 -950 1584 -1140 
Q 1353 -1331 966 -1331 
L 506 -1331 
L 506 -850 
L 844 -850 
Q 1081 -850 1212 -737 
Q 1344 -625 1503 -206 
L 1606 56 
L 191 3500 
L 800 3500 
L 1894 763 
L 2988 3500 
L 3597 3500 
L 2059 -325 
z
" transform="scale(0.015625)"/>
      </defs>
      <use xlink:href="#DejaVuSans-74"/>
      <use xlink:href="#DejaVuSans-72" transform="translate(39.208984 0)"/>
      <use xlink:href="#DejaVuSans-65" transform="translate(78.072266 0)"/>
      <use xlink:href="#DejaVuSans-65" transform="translate(139.595703 0)"/>
      <use xlink:href="#DejaVuSans-20" transform="translate(201.119141 0)"/>
      <use xlink:href="#DejaVuSans-64" transform="translate(232.90625 0)"/>
      <use xlink:href="#DejaVuSans-65" transform="translate(296.382812 0)"/>
      <use xlink:href="#DejaVuSans-6e" transform="translate(357.90625 0)"/>
      <use xlink:href="#DejaVuSans-73" transform="translate(421.285156 0)"/>
      <use xlink:href="#DejaVuSans-69" transform="translate(473.384766 0)"/>
      <use xlink:href="#DejaVuSans-74" transform="translate(501.167969 0)"/>
      <use xlink:href="#DejaVuSans-79" transform="translate(540.376953 0)"/>
     </g>
    </g>
   </g>
   <g id="line2d_29">
    <path d="M 74.514545 332.296364 
L 75.407846 282.590596 
L 76.837126 210.941251 
L 77.819757 137.265586 
L 78.713057 86.367418 
L 79.427698 58.207315 
L 79.963678 44.346609 
L 80.231668 41.443353 
L 80.320998 41.423636 
L 80.499658 43.134044 
L 80.767648 50.276349 
L 81.124968 68.198656 
L 81.660949 109.208994 
L 82.643579 186.749095 
L 83.000899 199.658479 
L 83.179559 201.482256 
L 83.268889 201.23087 
L 83.447549 198.874748 
L 83.71554 191.042364 
L 84.25152 165.889028 
L 85.23415 120.969892 
L 85.6808 109.06112 
L 86.038121 104.531252 
L 86.216781 104.087631 
L 86.395441 104.787567 
L 86.752761 108.573137 
L 87.110081 115.873174 
L 87.646061 133.859559 
L 88.360702 159.683257 
L 88.718022 166.593893 
L 88.986012 169.314772 
L 89.164672 169.576015 
L 89.343332 168.373308 
L 89.611322 164.124401 
L 90.861943 136.994484 
L 91.219263 134.076441 
L 91.844573 131.671027 
L 92.023233 131.65131 
L 92.559214 132.474475 
L 92.737874 133.036395 
L 93.005864 134.943967 
L 93.273854 139.099222 
L 93.631174 148.306831 
L 94.435144 170.73436 
L 94.792465 175.525472 
L 95.060455 176.925344 
L 95.149785 177.053501 
L 95.239115 176.964777 
L 95.417775 175.909944 
L 95.685765 172.139162 
L 96.400405 155.8829 
L 97.740356 126.879915 
L 98.187006 121.191702 
L 98.544326 118.717281 
L 98.633656 118.594052 
L 98.812316 119.293988 
L 99.080306 122.384551 
L 99.437627 129.684589 
L 100.241597 152.683896 
L 101.134897 177.649926 
L 101.492217 181.987558 
L 101.670878 182.322738 
L 101.849538 181.632661 
L 102.117528 178.793483 
L 102.474848 171.966642 
L 103.010828 155.892758 
L 104.350779 113.250878 
L 104.708099 107.70561 
L 104.886759 106.838084 
L 104.976089 106.897233 
L 105.154749 107.902775 
L 105.422739 111.131354 
L 105.780059 119.126398 
L 106.31604 138.335207 
L 107.12001 168.600048 
L 107.56666 178.13298 
L 107.83465 180.474316 
L 107.92398 180.572898 
L 108.01331 180.3363 
L 108.19197 178.847704 
L 108.459961 173.987584 
L 108.906611 160.131808 
L 109.799911 131.040099 
L 110.246561 121.822631 
L 110.514552 118.899658 
L 110.693212 118.401816 
L 110.782542 118.525045 
L 110.961202 119.436933 
L 111.407852 124.203399 
L 112.033162 133.938425 
L 112.837133 150.559442 
L 113.641103 165.381328 
L 113.909093 166.485453 
L 113.998423 166.455878 
L 114.177083 165.524273 
L 114.445073 162.48793 
L 114.891723 154.059123 
L 116.142344 125.933523 
L 116.499664 123.779494 
L 116.767654 123.370377 
L 116.946314 123.385164 
L 117.124974 123.823856 
L 117.392965 125.480043 
L 117.750285 129.773313 
L 118.911575 148.444847 
L 119.536886 158.879809 
L 119.894206 161.792923 
L 120.251526 162.862544 
L 120.519516 163.11393 
L 120.698176 163.153363 
L 120.876836 162.808324 
L 121.234156 161.004263 
L 121.502146 160.136737 
L 121.591476 160.146595 
L 121.859467 160.994405 
L 122.306117 162.221758 
L 122.395447 162.20697 
L 122.574107 161.659837 
L 122.931427 159.111478 
L 123.378077 153.166951 
L 123.824727 143.781893 
L 125.254008 107.745043 
L 125.611328 104.161568 
L 125.879318 102.988436 
L 126.057978 102.810987 
L 126.236639 103.07716 
L 126.593959 104.250292 
L 126.861949 106.414179 
L 127.397929 113.605776 
L 127.755249 120.831876 
L 128.55922 145.709181 
L 129.0952 158.036928 
L 129.36319 160.605004 
L 129.54185 161.147208 
L 129.63118 160.989476 
L 129.80984 159.737477 
L 130.07783 154.951295 
L 130.792471 134.288393 
L 131.239121 124.415352 
L 131.507111 121.630395 
L 131.685771 121.157199 
L 131.775101 121.359293 
L 131.953761 122.606362 
L 132.221751 126.179979 
L 132.579071 133.731402 
L 134.097682 170.995604 
L 134.365672 172.390547 
L 134.544332 172.567996 
L 134.722992 171.675824 
L 134.990982 168.176143 
L 135.348303 159.993792 
L 136.866913 118.391958 
L 137.224233 113.448044 
L 137.402894 112.45236 
L 137.492224 112.407998 
L 137.670884 113.221304 
L 137.938874 116.435095 
L 138.474854 126.525018 
L 139.010834 141.553927 
L 140.082795 176.580305 
L 140.440115 181.489716 
L 140.708105 182.835368 
L 140.797435 182.687494 
L 140.976095 181.396062 
L 141.244085 176.989423 
L 141.601405 166.401657 
L 142.941356 122.285969 
L 143.388006 113.561413 
L 143.745326 110.36241 
L 143.923986 109.953292 
L 144.102647 110.608866 
L 144.370637 112.866407 
L 144.638627 116.952653 
L 144.995947 126.697538 
L 146.335897 175.288874 
L 146.693218 180.67641 
L 146.871878 181.755889 
L 146.961208 181.80518 
L 147.050538 181.558724 
L 147.229198 179.784238 
L 147.586518 171.552595 
L 148.837139 139.710433 
L 149.283789 132.863876 
L 149.551779 131.572444 
L 149.641109 131.626665 
L 149.819769 132.287168 
L 150.087759 134.549637 
L 150.355749 138.709821 
L 150.89173 151.269237 
L 151.6957 170.51255 
L 152.05302 173.997442 
L 152.23168 174.416418 
L 152.41034 173.879143 
L 152.67833 171.232202 
L 153.03565 164.646888 
L 153.571631 149.573617 
L 154.732921 114.340216 
L 155.179571 107.562666 
L 155.536892 104.580544 
L 155.804882 103.772167 
L 155.894212 103.836245 
L 156.072872 104.644622 
L 156.340862 107.390146 
L 156.698182 114.478231 
L 157.591483 138.566876 
L 158.842103 173.598183 
L 159.110093 175.905015 
L 159.288753 176.259912 
L 159.467413 175.732495 
L 159.735403 173.465097 
L 160.092724 168.383167 
L 160.718034 155.3752 
L 161.522004 140.336433 
L 162.057985 133.849701 
L 162.861955 127.762229 
L 163.219275 125.800436 
L 163.397935 125.470185 
L 163.576595 125.672279 
L 163.755255 126.263774 
L 163.933915 127.392544 
L 164.201905 130.734493 
L 164.737886 142.027123 
L 165.541856 159.515667 
L 165.988506 165.42569 
L 166.256496 167.323404 
L 166.345826 167.343121 
L 166.435156 167.170601 
L 166.703147 165.351753 
L 167.060467 159.66847 
L 168.489747 134.485559 
L 169.025728 130.739422 
L 169.115058 130.571832 
L 169.204388 130.655627 
L 169.383048 131.350634 
L 169.740368 134.342614 
L 171.526969 151.599488 
L 171.794959 152.195913 
L 172.152279 151.614276 
L 172.420269 151.53541 
L 172.598929 151.303741 
L 172.777589 150.682671 
L 173.134909 148.20332 
L 173.49223 144.260018 
L 174.02821 138.019743 
L 174.2962 137.334594 
L 174.56419 137.127571 
L 175.1895 137.078279 
L 175.45749 137.704279 
L 175.725481 139.39004 
L 176.261461 145.285276 
L 176.708111 148.439918 
L 177.333421 151.737504 
L 177.512081 152.003677 
L 177.690741 151.638921 
L 177.958732 150.322844 
L 178.316052 147.335793 
L 178.941362 138.971064 
L 179.566672 130.971091 
L 179.923992 128.230496 
L 180.191983 127.333395 
L 180.370643 127.155946 
L 180.459973 127.165805 
L 180.638633 127.737583 
L 180.906623 130.039486 
L 181.263943 136.412847 
L 182.603894 165.543989 
L 182.961214 168.373308 
L 183.050544 168.540899 
L 183.139874 168.41767 
L 183.318534 167.343121 
L 183.586524 163.966669 
L 184.122504 153.053581 
L 184.926475 137.763428 
L 185.373125 133.411009 
L 185.641115 132.627278 
L 185.819775 132.794868 
L 185.998435 133.302568 
L 186.355755 135.624187 
L 186.891736 140.346291 
L 187.517046 148.154028 
L 188.053026 154.162634 
L 188.499676 156.78493 
L 189.035657 158.273527 
L 189.214317 157.80033 
L 189.571637 155.799105 
L 189.928957 151.905094 
L 190.464937 142.298225 
L 191.536898 122.216961 
L 191.983548 117.687093 
L 192.162208 117.056165 
L 192.251538 117.199109 
L 192.430198 118.160289 
L 192.698188 121.763481 
L 193.055508 131.868192 
L 194.484789 184.954892 
L 194.752779 187.503251 
L 194.842109 187.572259 
L 195.020769 186.206891 
L 195.288759 180.494032 
L 195.73541 162.483001 
L 196.80737 112.930485 
L 197.25402 102.73705 
L 197.43268 101.509697 
L 197.52201 101.534343 
L 197.70067 102.692688 
L 197.968661 107.562666 
L 198.325981 119.328492 
L 199.933921 180.272221 
L 200.112581 181.272834 
L 200.201912 181.18411 
L 200.380572 179.749734 
L 200.648562 175.155787 
L 201.095212 162.502718 
L 201.899182 129.176889 
L 202.703153 99.823936 
L 203.149803 89.7488 
L 203.417793 87.698283 
L 203.507123 87.717999 
L 203.685783 88.827053 
L 203.953773 93.13511 
L 204.221763 101.110438 
L 204.668414 123.173212 
L 205.651044 178.916711 
L 206.008364 187.784211 
L 206.187024 189.307312 
L 206.276354 189.322099 
L 206.455014 187.547613 
L 206.723004 180.829213 
L 207.080325 164.819408 
L 208.152285 111.343306 
L 208.598935 98.064237 
L 208.956255 93.002024 
L 209.134916 92.045773 
L 209.224246 92.144356 
L 209.402906 93.213976 
L 209.670896 97.078412 
L 210.028216 106.695139 
L 210.564196 128.166417 
L 211.546827 169.408425 
L 211.904147 175.993739 
L 212.082807 176.49651 
L 212.172137 176.240195 
L 212.350797 174.273474 
L 212.708117 166.529815 
L 213.244097 148.676516 
L 214.226728 114.650751 
L 214.673378 106.369817 
L 214.941368 104.452386 
L 215.030698 104.210859 
L 215.120028 104.270009 
L 215.298688 105.531865 
L 215.566678 109.667403 
L 215.923999 119.796759 
L 216.459979 142.731988 
L 217.263949 176.452148 
L 217.531939 181.469999 
L 217.710599 182.82058 
L 217.799929 182.830438 
L 217.978589 181.543936 
L 218.33591 175.515614 
L 218.78256 163.005489 
L 219.67586 136.141745 
L 220.12251 128.915645 
L 220.390501 127.239742 
L 220.569161 126.899632 
L 220.747821 127.441836 
L 221.015811 129.581077 
L 221.373131 135.574896 
L 221.998441 152.555739 
L 222.623752 168.526111 
L 222.981072 172.720799 
L 223.249062 173.721411 
L 223.338392 173.627758 
L 223.517052 172.765161 
L 223.785042 169.714031 
L 224.321022 159.924784 
L 226.196953 119.693248 
L 226.464943 117.573723 
L 226.554273 117.430778 
L 226.643603 117.544148 
L 226.822263 118.741926 
L 227.090254 123.46403 
L 227.626234 138.31549 
L 228.787524 172.124374 
L 229.055514 175.293803 
L 229.234174 175.702921 
L 229.412835 174.993126 
L 229.680825 172.627145 
L 230.216805 163.749787 
L 230.931445 146.384472 
L 232.450056 111.116566 
L 232.896706 104.77278 
L 233.164696 102.465948 
L 233.343356 102.125838 
L 233.522016 102.909569 
L 233.790007 106.054353 
L 234.147327 113.74872 
L 234.772637 134.796094 
L 235.755267 169.753464 
L 236.112588 175.126213 
L 236.201918 175.525472 
L 236.291248 175.476181 
L 236.469908 174.416418 
L 236.737898 170.980817 
L 237.005888 165.332037 
L 237.541868 147.187919 
L 238.792489 101.337178 
L 239.239139 91.513427 
L 239.507129 88.767903 
L 239.596459 88.437652 
L 239.685789 88.516518 
L 239.864449 89.822737 
L 240.132439 94.160369 
L 240.48976 104.743205 
L 241.11507 133.228631 
L 241.82971 162.931552 
L 242.27636 173.608041 
L 242.54435 176.309203 
L 242.63368 176.452148 
L 242.723011 176.181046 
L 242.901671 174.426277 
L 243.258991 167.466349 
L 244.866931 130.552115 
L 245.224252 126.446152 
L 245.492242 125.32724 
L 245.581572 125.337098 
L 245.760232 126.110971 
L 246.028222 128.979723 
L 246.474872 137.18672 
L 247.904153 167.870537 
L 248.172143 169.438 
L 248.261473 169.561228 
L 248.350803 169.423212 
L 248.529463 168.442316 
L 248.886783 163.784291 
L 249.958744 147.434376 
L 250.405394 143.565011 
L 250.762714 142.21443 
L 250.852044 142.248934 
L 251.030704 142.825642 
L 251.388024 145.43315 
L 251.745345 150.381994 
L 252.459985 160.881035 
L 252.727975 162.162608 
L 252.817305 162.197112 
L 252.995965 161.723916 
L 253.263955 159.584674 
L 253.621275 154.064052 
L 254.157256 140.513881 
L 254.782566 125.016705 
L 255.139886 120.738223 
L 255.407876 119.402429 
L 255.586536 119.264414 
L 255.765196 119.505941 
L 255.943856 120.18616 
L 256.211847 122.433842 
L 256.569167 128.481882 
L 257.105147 142.55454 
L 258.177107 172.277177 
L 258.445098 175.643771 
L 258.534428 176.092322 
L 258.623758 176.047959 
L 258.802418 175.002984 
L 259.070408 171.562454 
L 259.517058 161.802782 
L 260.589018 136.324123 
L 260.946339 133.159623 
L 261.214329 132.306884 
L 261.392989 132.341388 
L 261.571649 132.750506 
L 261.928969 134.490488 
L 262.286289 138.236624 
L 263.00093 149.134925 
L 263.89423 163.868086 
L 264.25155 166.519956 
L 264.43021 166.633326 
L 264.60887 165.93339 
L 264.87686 163.759645 
L 265.234181 158.475621 
L 265.948821 142.036981 
L 266.663461 127.998827 
L 267.110111 123.084487 
L 267.288771 122.537354 
L 267.378102 122.532425 
L 267.556762 123.23729 
L 267.824752 125.928594 
L 268.271402 133.51945 
L 268.986042 151.24952 
L 269.432692 159.288927 
L 269.879343 163.178008 
L 270.058003 163.463898 
L 270.236663 163.192796 
L 270.504653 161.477459 
L 270.861973 156.434962 
L 271.576613 141.381408 
L 272.291254 127.69815 
L 272.648574 124.390706 
L 272.827234 123.853431 
L 272.916564 124.03088 
L 273.095224 125.312453 
L 273.363214 129.556431 
L 273.720534 140.420228 
L 274.703165 173.795348 
L 275.060485 178.704759 
L 275.239145 179.355404 
L 275.417805 178.576602 
L 275.685795 174.741741 
L 276.132445 162.566796 
L 277.651056 114.606388 
L 278.008376 109.692049 
L 278.187036 108.790018 
L 278.276366 108.790018 
L 278.365696 109.075908 
L 278.633687 111.949589 
L 278.901677 117.775817 
L 279.348327 133.603245 
L 280.598947 180.553182 
L 280.956268 185.186561 
L 281.045598 185.452734 
L 281.134928 185.378797 
L 281.313588 183.998642 
L 281.581578 179.133593 
L 282.028228 165.731296 
L 282.653538 139.84352 
L 284.172149 74.601592 
L 284.618799 63.491339 
L 284.886789 61.258444 
L 284.976119 61.416176 
L 285.154779 63.131513 
L 285.42277 68.898592 
L 285.78009 83.513454 
L 286.49473 124.982201 
L 287.38803 175.338165 
L 287.745351 184.580279 
L 287.924011 185.827348 
L 288.013341 185.768198 
L 288.192001 184.708436 
L 288.459991 180.755276 
L 288.906641 168.220505 
L 290.603912 109.411088 
L 290.961232 104.99459 
L 291.139892 104.358733 
L 291.229222 104.457315 
L 291.407882 105.44807 
L 291.765202 110.017371 
L 292.211853 119.042603 
L 292.926493 139.10908 
L 293.641133 157.203906 
L 294.087783 163.932165 
L 294.355774 165.7658 
L 294.445104 165.795375 
L 294.534434 165.59821 
L 294.713094 164.331424 
L 295.070414 159.343147 
L 296.142374 135.062266 
L 296.589025 127.224954 
L 296.857015 125.144862 
L 296.946345 125.051209 
L 297.035675 125.164579 
L 297.214335 126.308136 
L 297.482325 129.728951 
L 298.196965 142.865075 
L 299.179596 161.635191 
L 299.536916 164.839124 
L 299.715576 165.31232 
L 299.804906 165.302462 
L 299.983566 164.563093 
L 300.251556 161.5859 
L 300.698206 152.200842 
L 302.306147 111.594692 
L 302.574137 110.066662 
L 302.663467 110.08145 
L 302.842127 110.909543 
L 303.110117 114.719758 
L 303.467438 124.47943 
L 304.092748 150.948844 
L 304.718058 175.274086 
L 305.075378 182.855084 
L 305.254038 184.264815 
L 305.343368 184.269744 
L 305.522029 182.65299 
L 305.790019 176.841549 
L 306.236669 159.850847 
L 307.487289 105.088244 
L 307.93394 94.396967 
L 308.29126 90.581822 
L 308.46992 90.374799 
L 308.64858 91.621868 
L 308.91657 96.531279 
L 309.27389 109.001971 
L 309.80987 137.990168 
L 310.524511 175.08678 
L 310.881831 185.206278 
L 311.149821 187.710274 
L 311.239151 187.434243 
L 311.417811 185.176703 
L 311.685801 177.79287 
L 312.132451 157.726393 
L 313.025752 117.164605 
L 313.740392 95.476446 
L 314.276372 84.957688 
L 314.544363 82.675502 
L 314.723023 82.369896 
L 314.812353 82.537487 
L 314.991013 83.789485 
L 315.259003 87.979243 
L 315.526993 95.501091 
L 315.884313 113.285382 
L 317.224264 188.883407 
L 317.581584 195.828547 
L 317.670914 196.242594 
L 317.760244 196.030641 
L 317.938904 193.368913 
L 318.206894 184.639428 
L 318.742874 156.499041 
L 319.725505 103.052514 
L 320.261485 85.307656 
L 320.529475 80.782717 
L 320.708135 79.69338 
L 320.797465 79.698309 
L 320.976125 80.807363 
L 321.154785 83.148698 
L 321.422776 90.118484 
L 321.780096 106.217014 
L 323.120046 177.157013 
L 323.477367 186.877252 
L 323.656027 188.543297 
L 323.745357 188.375707 
L 323.924017 186.034371 
L 324.192007 178.123122 
L 324.817317 149.741207 
L 325.978608 97.08827 
L 326.603918 80.861583 
L 326.961238 75.789511 
L 327.229228 74.512867 
L 327.318558 74.626237 
L 327.497218 75.878236 
L 327.765208 80.220797 
L 328.122529 91.676089 
L 328.658509 120.181231 
L 329.641139 173.790419 
L 329.998459 182.825509 
L 330.17712 183.860626 
L 330.35578 182.278376 
L 330.62377 175.870511 
L 332.32104 125.346957 
L 332.678361 120.871309 
L 333.035681 119.008099 
L 333.214341 118.653202 
L 333.303671 118.672918 
L 333.571661 119.254555 
L 333.750321 120.30446 
L 334.107641 124.331556 
L 334.554291 132.829372 
L 335.894242 164.46451 
L 336.340892 168.905654 
L 336.519552 169.438 
L 336.698212 168.856363 
L 336.966203 166.357295 
L 337.412853 158.948817 
L 338.842133 131.394996 
L 339.020793 130.931658 
L 339.199454 131.690743 
L 339.556774 136.146674 
L 341.343375 164.346211 
L 341.432705 164.237771 
L 341.611365 163.276591 
L 341.879355 160.634579 
L 342.861985 145.497229 
L 344.291266 122.024725 
L 344.559256 120.491766 
L 344.827246 120.028428 
L 345.005906 120.348822 
L 345.184566 120.940317 
L 345.363226 122.22189 
L 345.720546 127.264387 
L 346.167197 136.762815 
L 347.328487 162.635804 
L 347.685807 167.200176 
L 347.864467 168.13671 
L 348.043127 168.279655 
L 348.221788 167.68816 
L 348.489778 165.110226 
L 348.936428 157.499654 
L 349.919058 134.559495 
L 350.544369 123.059842 
L 350.901689 119.476366 
L 351.080349 118.993312 
L 351.259009 119.579878 
L 351.526999 122.147953 
L 351.973649 129.462778 
L 353.49226 156.484253 
L 353.67092 157.272914 
L 353.76025 157.29263 
L 353.93891 156.548332 
L 354.2069 153.930966 
L 354.56422 147.828706 
L 355.189531 131.828759 
L 356.082831 107.848555 
L 356.529481 102.042043 
L 356.708141 101.189304 
L 356.797471 101.051289 
L 356.976131 101.332249 
L 357.154792 102.549743 
L 357.422782 106.414179 
L 357.780102 116.336512 
L 358.405412 142.549611 
L 359.209382 174.411489 
L 359.566703 182.800864 
L 359.745363 184.535917 
L 359.834693 184.693649 
L 360.013353 183.323351 
L 360.281343 177.990036 
L 360.727993 162.680166 
L 362.067944 112.871336 
L 362.425264 106.221943 
L 362.693254 104.270009 
L 362.782584 104.196072 
L 362.961244 105.196685 
L 363.229234 108.573137 
L 363.586554 116.57311 
L 364.033205 133.57367 
L 365.194495 180.50389 
L 365.462485 184.264815 
L 365.641145 185.166845 
L 365.730475 185.078121 
L 365.909135 183.44165 
L 366.177126 177.462619 
L 366.623776 160.782452 
L 367.606406 121.48745 
L 368.053056 112.245336 
L 368.321047 109.859639 
L 368.499707 109.361797 
L 368.589037 109.332222 
L 368.767697 109.761056 
L 368.946357 110.776457 
L 369.214347 113.615634 
L 369.571667 119.865767 
L 370.018317 132.656852 
L 371.090278 164.459581 
L 371.447598 170.108361 
L 371.626258 171.148407 
L 371.715588 171.12869 
L 371.894248 169.985133 
L 372.162238 165.125013 
L 372.698218 148.568075 
L 373.502189 123.375306 
L 373.770179 119.57002 
L 373.948839 118.702493 
L 374.038169 118.687706 
L 374.216829 119.086965 
L 374.484819 120.964963 
L 374.842139 124.834327 
L 375.28879 132.568128 
L 376.27142 149.78064 
L 376.98606 159.081903 
L 377.254051 160.304327 
L 377.343381 160.324044 
L 377.522041 159.845918 
L 377.790031 157.869338 
L 378.147351 152.930353 
L 378.683331 141.711659 
L 379.308641 128.250213 
L 379.576632 125.233587 
L 379.844622 124.361131 
L 379.933952 124.469572 
L 380.201942 125.89409 
L 380.469932 128.871283 
L 380.827252 135.417164 
L 381.273902 147.705478 
L 382.077873 172.001146 
L 382.524523 177.837233 
L 382.703183 178.571673 
L 382.792513 178.463232 
L 382.971173 177.290099 
L 383.239163 173.346798 
L 383.596483 163.690637 
L 385.740404 92.193647 
L 386.097724 88.526376 
L 386.276385 88.181337 
L 386.365715 88.373573 
L 386.544375 89.876957 
L 386.812365 94.968746 
L 387.169685 106.138148 
L 387.705665 131.523153 
L 388.509636 170.675211 
L 388.866956 180.010978 
L 389.134946 182.613557 
L 389.224276 182.82058 
L 389.313606 182.682565 
L 389.492266 181.52422 
L 389.760256 177.132367 
L 390.206906 163.207583 
L 391.546857 116.484386 
L 391.993507 108.430192 
L 392.261497 106.157864 
L 392.350827 106.093786 
L 392.440157 106.281093 
L 392.618817 107.597169 
L 392.886807 111.392597 
L 393.244128 119.979137 
L 393.780108 138.902057 
L 394.673408 169.985133 
L 395.030728 175.796574 
L 395.209389 176.816903 
L 395.298719 176.900698 
L 395.477379 176.230337 
L 395.656039 174.01223 
L 396.013359 165.134872 
L 397.79996 110.894756 
L 398.06795 108.331609 
L 398.15728 108.10487 
L 398.24661 108.203452 
L 398.42527 109.154774 
L 398.69326 112.580517 
L 399.13991 122.798598 
L 400.747851 166.012256 
L 400.926511 166.761484 
L 401.105171 166.199563 
L 401.283831 164.888415 
L 401.730481 159.04247 
L 402.266462 149.065917 
L 402.802442 139.868166 
L 403.159762 137.265586 
L 403.338422 136.945193 
L 403.517082 136.920547 
L 403.695742 136.876185 
L 403.874402 136.590296 
L 404.142393 136.082596 
L 404.321053 135.94458 
L 404.499713 135.998801 
L 404.857033 136.683949 
L 405.214353 137.551476 
L 405.482343 137.793003 
L 405.750333 137.743712 
L 405.839663 137.788074 
L 406.018323 138.37464 
L 406.286313 140.548385 
L 407.983584 157.470079 
L 408.340904 159.313572 
L 408.430234 159.313572 
L 408.608895 158.840376 
L 408.966215 156.760285 
L 409.412865 154.3598 
L 409.859515 152.969786 
L 410.216835 151.269237 
L 411.556786 142.682697 
L 412.003436 139.577347 
L 412.182096 139.370324 
L 412.360756 140.262496 
L 412.628746 143.308696 
L 413.075397 151.170654 
L 414.236687 173.10527 
L 414.504677 175.205079 
L 414.594007 175.451535 
L 414.683337 175.397315 
L 414.861997 174.490355 
L 415.129987 171.86313 
L 415.576638 164.715896 
L 416.023288 153.753517 
L 417.631229 109.948363 
L 417.988549 105.374133 
L 418.256539 104.358733 
L 418.435199 105.063598 
L 418.613859 106.936666 
L 418.881849 112.501651 
L 419.507159 133.223702 
L 420.75778 179.88282 
L 420.93644 181.928408 
L 421.02577 182.095999 
L 421.20443 180.701056 
L 421.56175 173.006688 
L 422.0084 157.425717 
L 423.080361 115.582356 
L 423.437681 110.086379 
L 423.616341 109.603324 
L 423.705671 109.79556 
L 423.884331 111.175716 
L 424.241651 117.696951 
L 424.688302 131.562586 
L 425.492272 158.31296 
L 425.938922 167.727593 
L 426.296242 171.232202 
L 426.385572 171.483588 
L 426.474902 171.429367 
L 426.653563 170.409038 
L 426.921553 166.746696 
L 427.368203 156.745497 
L 428.082843 134.25389 
L 429.244134 97.748773 
L 429.601454 93.046386 
L 429.690784 92.775284 
L 429.780114 92.839363 
L 429.958774 94.278668 
L 430.226764 99.656346 
L 430.584084 113.029068 
L 431.924035 174.036875 
L 432.281355 180.257434 
L 432.460015 181.489716 
L 432.549345 181.558724 
L 432.638675 181.179181 
L 432.817335 178.778696 
L 433.174655 169.433071 
L 434.425276 132.765293 
L 435.050586 120.35868 
L 435.497237 115.636576 
L 435.675897 115.345758 
L 435.854557 116.129489 
L 436.211877 119.51087 
L 436.569197 125.238516 
L 437.015847 137.324736 
L 437.551827 158.239023 
L 438.177138 180.489103 
L 438.534458 186.734307 
L 438.713118 187.78914 
L 438.802448 187.798999 
L 438.891778 187.56733 
L 439.070438 185.723836 
L 439.338428 179.394837 
L 439.785078 161.413381 
L 440.946369 108.83931 
L 441.482349 94.357534 
L 441.750339 90.616326 
L 441.928999 90.054406 
L 442.107659 91.237396 
L 442.37565 96.393263 
L 442.73297 108.341468 
L 443.26895 135.358014 
L 444.16225 179.631435 
L 444.43024 185.659758 
L 444.608901 186.88711 
L 444.698231 186.586433 
L 444.876891 184.526058 
L 445.144881 177.664713 
L 445.591531 158.283385 
L 446.931482 94.401896 
L 447.288802 87.303953 
L 447.556792 85.657624 
L 447.646122 85.716774 
L 447.824782 86.47093 
L 448.003442 88.270062 
L 448.271432 93.41607 
L 448.628752 105.679739 
L 449.164733 133.396221 
L 449.879373 169.812613 
L 450.326023 183.27406 
L 450.594013 186.512497 
L 450.683343 186.517426 
L 450.862003 185.112624 
L 451.129993 178.857562 
L 451.487314 163.291378 
L 452.916594 91.227538 
L 453.363244 78.308295 
L 453.631235 74.739607 
L 453.720565 74.468505 
L 453.809895 74.705103 
L 453.988555 76.790124 
L 454.345875 85.352018 
L 454.881855 105.684668 
L 456.489796 176.757754 
L 456.757786 179.794096 
L 456.847116 179.986332 
L 456.936446 179.803954 
L 457.115106 178.088618 
L 457.383096 172.242673 
L 457.829746 155.498428 
L 459.437687 86.796253 
L 459.705677 84.242965 
L 459.795007 84.129595 
L 459.973667 85.22879 
L 460.241658 91.010656 
L 460.598978 106.019849 
L 461.492278 157.731323 
L 462.028258 182.855084 
L 462.296248 189.514335 
L 462.474909 190.574097 
L 462.653569 188.898194 
L 462.921559 182.815651 
L 463.368209 165.751013 
L 464.97615 90.986011 
L 465.33347 83.493737 
L 465.60146 81.660102 
L 465.69079 81.985424 
L 465.86945 83.927501 
L 466.13744 90.133272 
L 466.49476 103.678513 
L 467.030741 134.92918 
L 467.834711 180.316584 
L 468.192031 190.209342 
L 468.460021 192.338725 
L 468.549351 192.003544 
L 468.728011 189.676996 
L 468.996001 181.810109 
L 469.531982 155.291405 
L 470.961262 79.851112 
L 471.497243 61.780932 
L 471.854563 55.964562 
L 471.943893 55.585019 
L 472.033223 55.639239 
L 472.211883 57.398938 
L 472.479873 63.915244 
L 472.926523 83.286714 
L 473.462503 117.130102 
L 474.355804 177.45769 
L 474.713124 189.59813 
L 474.981114 192.846425 
L 475.070444 193.083023 
L 475.159774 192.959795 
L 475.338434 191.34797 
L 475.606424 185.107695 
L 476.053075 166.179847 
L 477.571685 93.130181 
L 478.018335 79.885616 
L 478.286326 75.745149 
L 478.375656 75.29167 
L 478.464986 75.365607 
L 478.643646 77.090801 
L 478.911636 83.587391 
L 479.268956 99.262015 
L 479.804936 134.446126 
L 480.608907 186.157599 
L 480.966227 197.0559 
L 481.144887 198.914181 
L 481.234217 198.948685 
L 481.412877 197.233348 
L 481.680867 190.174838 
L 482.127517 169.166898 
L 483.556798 96.41298 
L 484.092778 78.234359 
L 484.450098 71.146274 
L 484.718088 69.154906 
L 484.807419 69.051395 
L 484.896749 69.366859 
L 485.075409 71.461738 
L 485.343399 78.411807 
L 485.700719 95.032824 
L 486.326029 139.454119 
L 486.951339 178.763909 
L 487.39799 195.769397 
L 487.66598 199.377519 
L 487.75531 199.308511 
L 487.93397 197.198844 
L 488.20196 189.553768 
L 488.64861 168.190931 
L 489.988561 102.426515 
L 490.435211 90.364941 
L 490.703201 86.75682 
L 490.881861 86.372348 
L 491.060521 87.791936 
L 491.328511 93.342134 
L 491.775162 109.800489 
L 492.757792 157.583449 
L 493.204442 174.825536 
L 493.561762 181.588298 
L 493.740422 182.431179 
L 493.829753 182.278376 
L 494.008413 180.888362 
L 494.276403 176.240195 
L 494.633723 165.918603 
L 495.973673 119.476366 
L 496.241664 116.090056 
L 496.330994 115.789379 
L 496.420324 115.83867 
L 496.598984 116.79985 
L 496.866974 121.359293 
L 497.224294 132.464616 
L 498.474915 178.206917 
L 498.832235 182.973383 
L 498.921565 183.111399 
L 499.100225 181.982629 
L 499.368215 177.275312 
L 499.814865 162.946339 
L 501.512136 104.156639 
L 501.869456 99.306377 
L 502.048116 98.631087 
L 502.137446 98.759244 
L 502.316106 100.440077 
L 502.584096 106.197297 
L 503.030747 122.014867 
L 504.370697 175.180433 
L 504.638687 178.665326 
L 504.817347 178.966003 
L 504.906677 178.665326 
L 505.085338 176.880982 
L 505.442658 169.812613 
L 505.978638 153.369045 
L 507.139928 117.568794 
L 507.586579 108.149232 
L 507.854569 105.817755 
L 507.943899 105.605802 
L 508.033229 105.650164 
L 508.122559 105.911408 
L 508.390549 108.548491 
L 508.747869 115.700655 
L 509.105189 127.648859 
L 510.35581 176.600022 
L 510.71313 181.667164 
L 510.89179 182.174865 
L 510.98112 181.943196 
L 511.15978 180.193355 
L 511.42777 174.593867 
L 513.125041 129.078306 
L 513.393031 126.564451 
L 513.571691 126.283491 
L 513.750351 127.091868 
L 514.375662 133.248348 
L 514.911642 140.824416 
L 515.894272 156.804647 
L 516.251593 159.944501 
L 516.430253 160.299398 
L 516.519583 160.284611 
L 516.698243 159.796627 
L 517.055563 157.701748 
L 517.680873 150.243978 
L 518.663504 136.462139 
L 518.842164 135.870643 
L 518.931494 135.826281 
L 519.110154 136.215682 
L 519.378144 137.329665 
L 519.735464 140.213204 
L 520.182114 146.512629 
L 521.790055 169.092961 
L 522.147375 171.315997 
L 522.326035 171.394863 
L 522.594025 170.537195 
L 522.862015 169.15704 
L 523.576656 163.404748 
L 525.899237 140.050543 
L 525.988567 139.917457 
L 526.077897 140.001252 
L 526.256557 140.725834 
L 526.613877 143.431924 
L 527.417848 149.627837 
L 528.043158 152.26985 
L 528.311148 151.673425 
L 529.204448 147.794202 
L 529.651099 146.690078 
L 529.740429 146.813306 
L 529.919089 147.380155 
L 531.080379 153.521848 
L 531.348369 153.945753 
L 531.527029 154.226713 
L 531.795019 155.256901 
L 532.331 157.080678 
L 532.50966 156.996883 
L 532.86698 156.44975 
L 533.49229 154.818208 
L 533.76028 154.24643 
L 533.93894 153.344399 
L 534.206931 150.500293 
L 534.742911 140.144197 
L 535.636211 118.682777 
L 536.440182 100.016172 
L 536.708172 96.92068 
L 536.886832 96.210886 
L 536.976162 96.270035 
L 537.154822 97.448097 
L 537.422812 102.475806 
L 537.780132 116.558323 
L 539.120083 177.950603 
L 539.388073 181.933337 
L 539.477403 182.268518 
L 539.566733 182.002345 
L 539.745393 179.744805 
L 540.013383 172.040579 
L 540.906684 134.372189 
L 541.442664 117.351912 
L 541.799984 112.033384 
L 541.978644 111.510897 
L 542.067974 111.722849 
L 542.246634 113.132579 
L 542.514624 117.460353 
L 542.871944 127.614355 
L 544.479885 183.909917 
L 544.747875 186.093521 
L 544.837205 185.891426 
L 545.015865 184.067649 
L 545.283855 178.261138 
L 545.819836 158.145369 
L 546.981126 114.754262 
L 547.427776 104.817142 
L 547.695767 102.323003 
L 547.785097 102.313145 
L 547.963757 103.225034 
L 548.231747 106.847942 
L 548.589067 116.785063 
L 549.482367 151.540339 
L 550.197008 179.104018 
L 550.554328 185.526671 
L 550.643658 185.847064 
L 550.732988 185.753411 
L 550.911648 184.264815 
L 551.268968 177.866807 
L 551.715618 165.051077 
L 552.876909 124.967414 
L 553.234229 119.643956 
L 553.502219 118.43632 
L 553.591549 118.520115 
L 553.770209 119.594665 
L 554.038199 123.015479 
L 554.39552 131.040099 
L 555.37815 161.339444 
L 555.91413 175.697991 
L 556.27145 180.148993 
L 556.45011 180.740489 
L 556.539441 180.666552 
L 556.718101 179.76945 
L 556.986091 176.885911 
L 557.343411 169.921054 
L 557.879391 154.645689 
L 558.594031 136.210753 
L 559.040682 128.501598 
L 559.308672 126.500372 
L 559.576662 126.076467 
L 559.755322 126.032105 
L 559.933982 126.465869 
L 560.201972 128.274858 
L 560.559292 132.410396 
L 562.703213 167.939545 
L 562.881873 168.866221 
L 562.971203 168.900725 
L 563.239194 168.462033 
L 563.507184 167.101593 
L 563.953834 163.044922 
L 564.400484 156.272301 
L 565.025794 146.877384 
L 565.561775 141.810242 
L 566.365745 137.477539 
L 566.812395 135.900218 
L 566.991055 135.377731 
L 567.080385 135.353085 
L 567.259045 135.673478 
L 567.527035 137.374027 
L 567.973686 142.662981 
L 569.224306 160.693728 
L 569.581626 162.409064 
L 569.760286 162.552009 
L 569.938946 161.935868 
L 570.206937 159.934642 
L 571.993537 142.736918 
L 572.172197 142.224288 
L 572.350858 142.317942 
L 572.708178 142.731988 
L 573.065498 143.860759 
L 574.494779 149.529255 
L 574.941429 150.791111 
L 575.120089 150.662954 
L 575.298749 150.184829 
L 575.656069 147.927289 
L 576.99602 140.321645 
L 577.08535 140.282212 
L 577.26401 140.883566 
L 577.532 143.249547 
L 577.97865 149.854577 
L 579.229271 170.773793 
L 579.407931 171.389934 
L 579.497261 171.424438 
L 579.675921 170.798439 
L 579.943911 168.945087 
L 580.301231 165.110226 
L 581.105201 151.974102 
L 581.909172 140.573031 
L 582.623812 132.67164 
L 582.891802 131.557657 
L 582.981132 131.513295 
L 583.159792 132.109719 
L 583.427783 133.864489 
L 583.695773 137.6402 
L 584.321083 151.796653 
L 584.857063 162.389348 
L 585.125053 164.730683 
L 585.214383 164.927848 
L 585.303713 164.735612 
L 585.571703 162.655521 
L 585.929024 157.159544 
L 586.822324 140.597676 
L 587.179644 137.576121 
L 587.447634 136.95998 
L 587.626294 136.989555 
L 587.804954 137.226153 
L 588.519595 138.734466 
L 588.787585 140.006181 
L 589.859545 147.922359 
L 590.484856 152.600101 
L 590.752846 153.516919 
L 590.931506 153.590856 
L 591.110166 153.078226 
L 591.735476 150.446073 
L 592.003466 149.889081 
L 592.360786 149.721491 
L 592.628777 150.362277 
L 593.075427 151.791724 
L 593.432747 152.32407 
L 593.611407 152.250133 
L 593.790067 152.003677 
L 594.058057 150.830544 
L 594.683368 146.019716 
L 595.487338 139.261883 
L 595.933988 136.999413 
L 596.112648 136.718453 
L 596.648628 136.979697 
L 596.916619 136.807177 
L 597.273939 137.181791 
L 598.167239 137.068421 
L 598.345899 136.541005 
L 598.792549 134.717228 
L 599.2392 134.209527 
L 599.68585 133.080757 
L 599.95384 133.159623 
L 600.31116 133.588457 
L 600.57915 134.278535 
L 601.740441 138.621096 
L 602.455081 143.643877 
L 602.991061 149.361665 
L 603.616372 156.060348 
L 604.063022 158.613636 
L 604.420342 159.998721 
L 604.777662 160.51135 
L 605.224312 160.526138 
L 605.492302 160.39798 
L 605.760292 160.713445 
L 606.028283 161.940797 
L 606.742923 166.406587 
L 607.010913 166.707263 
L 607.100243 166.687547 
L 607.278903 166.308004 
L 607.814883 164.035676 
L 608.261534 160.757807 
L 608.976174 154.251359 
L 609.333494 153.142305 
L 609.690814 152.15648 
L 610.048134 150.322844 
L 610.405455 147.868139 
L 610.405455 147.868139 
" clip-path="url(#p447fb02f3b)" style="fill: none; stroke: #d62728; stroke-width: 1.7; stroke-linecap: square"/>
   </g>
   <g id="line2d_30">
    <path d="M 74.514545 332.296364 
L 75.407846 282.590596 
L 76.837126 210.941251 
L 77.819757 136.67902 
L 78.534397 95.79191 
L 79.159708 73.216507 
L 79.517028 66.463603 
L 79.785018 64.472235 
L 79.874348 64.511668 
L 80.053008 65.68973 
L 80.320998 70.372401 
L 80.678318 80.979882 
L 81.303628 107.178194 
L 83.000899 185.945647 
L 83.358219 192.496457 
L 83.536879 193.240755 
L 83.62621 193.058377 
L 83.80487 191.781734 
L 84.07286 187.779282 
L 84.43018 178.118193 
L 85.05549 151.791724 
L 85.77013 124.42521 
L 86.216781 114.108547 
L 86.574101 110.209607 
L 86.752761 109.85471 
L 86.931421 110.268756 
L 87.110081 111.259511 
L 87.556731 115.991473 
L 88.986012 134.653149 
L 89.789982 148.499067 
L 90.504623 162.389348 
L 90.861943 166.135485 
L 91.040603 166.529815 
L 91.129933 166.342508 
L 91.397923 164.46944 
L 91.755243 159.683257 
L 92.291223 148.37091 
L 93.005864 134.564425 
L 94.256484 116.380874 
L 94.703134 112.797399 
L 95.149785 110.87011 
L 95.239115 110.820819 
L 95.328445 111.057417 
L 95.507105 112.462218 
L 95.775095 116.701267 
L 96.221745 128.329079 
L 97.383036 163.079426 
L 97.740356 168.595119 
L 98.008346 169.743606 
L 98.187006 168.940158 
L 98.454996 165.731296 
L 98.990976 154.601327 
L 99.794947 138.724608 
L 100.152267 135.160849 
L 100.330927 134.677795 
L 100.420257 134.732015 
L 100.598917 135.924864 
L 101.045567 141.849675 
L 101.670878 154.295721 
L 102.564178 172.410264 
L 102.832168 174.938906 
L 103.010828 175.426889 
L 103.189488 175.417031 
L 103.278818 175.20015 
L 103.457478 173.864356 
L 103.814799 169.206331 
L 104.440109 157.760897 
L 105.780059 130.971091 
L 106.13738 127.634072 
L 106.31604 126.943994 
L 106.40537 126.929207 
L 106.58403 127.737583 
L 106.85202 130.842934 
L 107.20934 137.916231 
L 108.549291 168.910583 
L 108.727951 169.733747 
L 108.817281 169.60559 
L 108.995941 168.038128 
L 109.353261 161.24579 
L 109.978571 142.036981 
L 110.961202 111.634125 
L 111.318522 106.91695 
L 111.497182 106.493045 
L 111.675842 107.252131 
L 111.854502 109.056191 
L 112.211822 115.552781 
L 112.926463 137.083209 
L 113.730433 160.11702 
L 114.177083 167.264255 
L 114.445073 169.068315 
L 114.534403 169.073244 
L 114.713063 168.545828 
L 114.981054 166.628397 
L 115.338374 162.566796 
L 115.785024 154.803421 
L 116.767654 137.733853 
L 117.214305 133.154694 
L 117.482295 132.075215 
L 117.571625 132.060428 
L 117.660955 132.21816 
L 117.928945 134.120803 
L 118.822245 142.032052 
L 119.447556 150.850261 
L 120.162196 159.38258 
L 121.144826 168.383167 
L 121.323486 169.03874 
L 121.412816 169.09789 
L 121.591476 168.881008 
L 121.770137 168.328946 
L 122.038127 166.569248 
L 122.484777 160.915539 
L 123.110087 150.012309 
L 124.092718 132.395609 
L 124.450038 129.231109 
L 124.718028 128.057977 
L 124.896688 127.821379 
L 124.986018 127.900245 
L 125.164678 128.792417 
L 125.432668 131.971704 
L 126.057978 143.638948 
L 126.951279 159.323431 
L 127.308599 162.818182 
L 127.487259 163.301236 
L 127.576589 163.182937 
L 127.755249 162.325269 
L 128.201899 158.273527 
L 128.64855 152.935282 
L 129.45252 141.687013 
L 129.89917 137.985239 
L 130.34582 136.122029 
L 130.61381 135.624187 
L 130.792471 135.71784 
L 130.971131 136.34384 
L 131.417781 139.33582 
L 132.043091 145.15219 
L 132.668401 150.283411 
L 133.829692 156.622269 
L 134.365672 157.652457 
L 134.722992 157.198977 
L 135.080312 156.464537 
L 135.616293 154.542177 
L 135.794953 154.394303 
L 135.973613 154.556965 
L 136.509593 155.606869 
L 137.313563 158.736865 
L 137.581554 159.15584 
L 137.760214 158.879809 
L 138.028204 157.642598 
L 138.296194 155.389987 
L 138.832174 148.252611 
L 140.797435 119.599594 
L 141.333415 115.025364 
L 141.601405 113.985318 
L 141.780065 113.945885 
L 141.958726 114.42894 
L 142.226716 116.297079 
L 142.673366 121.679686 
L 143.120016 129.462778 
L 144.638627 161.226074 
L 145.174607 166.697405 
L 145.353267 167.126239 
L 145.531927 166.564319 
L 145.710587 165.366541 
L 146.246567 158.786156 
L 146.961208 145.383859 
L 147.854508 128.403016 
L 148.211828 125.839869 
L 148.390488 125.514547 
L 148.569148 126.037034 
L 148.837139 128.644543 
L 149.194459 136.048092 
L 149.819769 154.823138 
L 150.713069 181.529149 
L 150.98106 184.85631 
L 151.07039 185.225994 
L 151.15972 185.181632 
L 151.33838 183.94935 
L 151.60637 180.001119 
L 152.05302 168.368379 
L 152.67833 145.033891 
L 153.303641 123.956943 
L 153.750291 115.183096 
L 154.018281 113.098075 
L 154.107611 113.038926 
L 154.196941 113.167083 
L 154.375601 114.044468 
L 154.643591 116.701267 
L 155.268901 125.78072 
L 156.340862 142.036981 
L 157.680813 155.675877 
L 158.127463 157.958062 
L 158.663443 160.028296 
L 158.931433 160.092375 
L 159.199423 159.210061 
L 159.556743 156.632127 
L 160.807364 145.861984 
L 161.075354 145.531733 
L 161.164684 145.60567 
L 161.432674 146.517558 
L 161.789994 148.390626 
L 162.593965 155.325909 
L 162.951285 157.943275 
L 163.219275 158.771368 
L 163.397935 159.0474 
L 163.755255 159.116407 
L 164.559226 161.216216 
L 164.737886 161.442955 
L 164.916546 161.290152 
L 165.095206 160.945114 
L 165.452526 159.525525 
L 165.899176 156.33145 
L 167.060467 146.571779 
L 167.953767 143.732601 
L 168.221757 142.638335 
L 169.561708 136.05795 
L 169.919028 136.00373 
L 170.097688 136.23047 
L 170.812328 137.669775 
L 171.080319 138.813332 
L 171.705629 142.796067 
L 172.330939 144.511403 
L 172.509599 145.388788 
L 172.866919 148.252611 
L 173.4029 152.393078 
L 173.67089 153.152163 
L 173.84955 153.290179 
L 174.11754 153.073297 
L 174.47486 151.969173 
L 174.92151 149.992593 
L 175.27883 146.67529 
L 175.904141 140.784983 
L 176.261461 138.76897 
L 176.440121 138.517585 
L 176.529451 138.581663 
L 176.708111 139.197804 
L 177.154761 141.834887 
L 177.512081 145.615528 
L 178.316052 154.18728 
L 178.673372 156.858867 
L 178.941362 157.563732 
L 179.030692 157.553874 
L 179.298682 156.868725 
L 179.745332 154.502744 
L 180.191983 150.973489 
L 180.727963 145.083182 
L 181.531933 132.873734 
L 182.782554 112.398139 
L 183.139874 109.790631 
L 183.318534 109.539246 
L 183.497194 110.086379 
L 183.765184 112.265053 
L 184.122504 117.524432 
L 184.747815 131.281626 
L 185.462455 146.009858 
L 185.819775 149.406027 
L 186.087765 150.524939 
L 186.177095 150.534797 
L 186.355755 150.189758 
L 186.623745 148.814531 
L 187.159726 144.033278 
L 188.053026 134.391905 
L 188.589006 131.671027 
L 189.928957 128.486811 
L 190.107617 128.664259 
L 190.554267 129.684589 
L 191.536898 130.838004 
L 191.894218 132.001278 
L 192.340868 133.489875 
L 192.698188 135.367872 
L 193.144838 139.868166 
L 193.502159 145.083182 
L 194.931439 167.747309 
L 195.110099 168.481749 
L 195.288759 168.59019 
L 195.378089 168.462033 
L 195.646079 166.795988 
L 196.0034 162.783678 
L 196.45005 155.09424 
L 197.52201 134.953826 
L 197.79 133.568741 
L 197.87933 133.578599 
L 197.968661 133.721544 
L 198.147321 134.687653 
L 198.415311 137.669775 
L 198.951291 147.227352 
L 199.576601 157.514441 
L 199.933921 161.028909 
L 200.291242 162.611159 
L 200.380572 162.635804 
L 200.559232 162.285836 
L 201.005882 159.905068 
L 201.631192 154.409091 
L 202.077842 148.503996 
L 202.524493 139.414686 
L 203.328463 123.932297 
L 203.775113 118.367313 
L 204.043103 117.085739 
L 204.221763 117.046306 
L 204.400423 117.381487 
L 204.757744 118.806005 
L 205.561714 123.35066 
L 205.919034 126.860199 
L 206.544344 136.181178 
L 208.241615 165.317249 
L 208.509605 166.377012 
L 208.598935 166.342508 
L 208.777595 165.834808 
L 209.045585 164.119472 
L 209.402906 159.707903 
L 209.849556 151.343174 
L 211.368167 120.151657 
L 211.546827 119.446791 
L 211.636157 119.515799 
L 211.814817 120.506554 
L 212.082807 124.321698 
L 212.440127 133.40608 
L 213.690748 172.015933 
L 214.048068 176.077534 
L 214.137398 176.319061 
L 214.226728 176.220479 
L 214.405388 175.091709 
L 214.673378 170.862518 
L 216.281319 136.713524 
L 216.549309 134.293323 
L 216.817299 133.642678 
L 216.906629 133.810268 
L 217.085289 134.81581 
L 217.531939 139.350607 
L 217.978589 147.385085 
L 219.40787 175.155787 
L 219.67586 177.368966 
L 219.85452 177.68443 
L 220.03318 177.157013 
L 220.30117 174.840323 
L 220.658491 169.561228 
L 221.283801 155.409704 
L 222.266431 133.51452 
L 222.623752 129.029015 
L 222.891742 127.919961 
L 222.981072 127.954465 
L 223.159732 128.649472 
L 223.517052 131.671027 
L 223.963702 138.369711 
L 224.767672 155.03509 
L 225.392983 165.588351 
L 225.750303 168.752851 
L 226.018293 169.462645 
L 226.196953 169.221118 
L 226.375613 168.402883 
L 226.643603 165.455265 
L 229.055514 130.157785 
L 229.323505 128.802275 
L 229.591495 128.235425 
L 229.948815 128.023473 
L 230.127475 128.289646 
L 230.306135 129.004369 
L 230.574125 131.725247 
L 230.931445 138.42886 
L 232.092736 161.817569 
L 232.718046 168.876079 
L 232.896706 169.438 
L 232.986036 169.270409 
L 233.343356 167.106523 
L 233.790007 161.886577 
L 234.415317 154.142918 
L 235.487277 146.645715 
L 236.291248 143.348129 
L 237.184548 141.59336 
L 237.363208 141.524352 
L 237.631198 142.520036 
L 237.899188 144.674065 
L 238.345839 152.259991 
L 239.239139 168.708489 
L 239.685789 173.39116 
L 239.953779 174.564292 
L 240.043109 174.608654 
L 240.221769 173.741128 
L 240.48976 170.478046 
L 240.93641 160.45713 
L 242.63368 116.888574 
L 242.991001 112.79247 
L 243.169661 112.196045 
L 243.258991 112.230549 
L 243.437651 112.807257 
L 243.705641 115.10423 
L 244.062961 121.201561 
L 244.509611 133.238489 
L 245.313582 155.528003 
L 245.670902 160.669082 
L 245.938892 162.354844 
L 246.028222 162.443568 
L 246.117552 162.32034 
L 246.296212 161.309869 
L 246.564202 157.829905 
L 247.368173 139.84352 
L 247.993483 127.619284 
L 248.440133 122.005008 
L 248.708123 120.146727 
L 248.886783 119.895342 
L 249.065443 120.511483 
L 249.333433 122.557071 
L 249.601424 126.130688 
L 250.048074 135.15592 
L 250.852044 157.312347 
L 251.298694 166.519956 
L 251.656014 169.787968 
L 251.834675 170.088645 
L 252.013335 169.334488 
L 252.281325 166.347437 
L 252.638645 159.141053 
L 253.174625 141.445486 
L 253.978596 117.396274 
L 254.335916 111.742566 
L 254.514576 110.697591 
L 254.603906 110.677874 
L 254.782566 111.614408 
L 255.050556 115.025364 
L 255.407876 123.562613 
L 257.015817 166.95372 
L 257.373137 170.349888 
L 257.551797 170.773793 
L 257.730457 170.315384 
L 257.998447 168.678914 
L 258.355767 164.676463 
L 258.802418 156.518757 
L 259.695718 135.619258 
L 260.410358 120.935388 
L 260.857009 115.045081 
L 261.214329 112.541084 
L 261.392989 112.220691 
L 261.482319 112.294628 
L 261.660979 113.162154 
L 261.928969 116.188638 
L 262.464949 126.184908 
L 263.09026 143.466428 
L 263.98356 167.150885 
L 264.25155 169.787968 
L 264.34088 170.034424 
L 264.43021 169.9457 
L 264.60887 169.117607 
L 264.87686 165.686934 
L 265.234181 157.908771 
L 266.038151 133.386363 
L 266.484801 122.014867 
L 266.842121 117.243471 
L 267.110111 115.685867 
L 267.199441 115.528135 
L 267.288771 115.61686 
L 267.556762 116.819567 
L 267.914082 119.949562 
L 269.432692 134.584141 
L 269.968673 139.089363 
L 270.861973 148.888468 
L 271.665943 158.805872 
L 272.023264 161.566184 
L 272.291254 162.409064 
L 272.827234 162.832969 
L 273.005894 162.423852 
L 273.363214 160.565571 
L 274.167185 153.995044 
L 275.507135 142.584115 
L 276.043115 140.227992 
L 276.400436 138.971064 
L 276.579096 138.872482 
L 277.025746 139.340749 
L 277.383066 139.202733 
L 277.919046 137.945806 
L 278.365696 136.743099 
L 278.544356 136.289619 
L 279.169667 134.209527 
L 279.348327 134.549637 
L 279.616317 136.053021 
L 280.509617 143.698097 
L 280.956268 148.829319 
L 281.492248 154.404162 
L 281.760238 155.335767 
L 282.028228 155.700522 
L 282.206888 155.725168 
L 282.474878 155.971624 
L 282.653538 155.582223 
L 283.100189 153.447911 
L 283.546839 151.619205 
L 283.814829 151.091788 
L 284.172149 151.02771 
L 284.618799 151.451615 
L 285.154779 151.037568 
L 285.5121 150.722104 
L 285.78009 149.805286 
L 286.13741 147.912501 
L 286.85205 144.279734 
L 287.03071 144.260018 
L 287.20937 144.905734 
L 287.566691 148.050517 
L 287.924011 152.452227 
L 288.638651 165.943249 
L 289.263961 176.486652 
L 289.531951 178.3055 
L 289.621281 178.453374 
L 289.799942 178.039327 
L 289.978602 176.831691 
L 290.246592 172.922893 
L 290.693242 161.738703 
L 291.497212 133.736331 
L 292.301183 108.523845 
L 292.658503 101.938531 
L 292.926493 99.957022 
L 293.015823 99.907731 
L 293.194483 100.725966 
L 293.462473 104.339016 
L 293.730463 111.32359 
L 294.177113 130.12821 
L 295.338404 187.50818 
L 295.695724 196.257381 
L 295.874384 198.115662 
L 295.963714 198.219174 
L 296.142374 196.760152 
L 296.410364 190.78605 
L 296.946345 168.9303 
L 298.643615 96.033437 
L 299.179596 81.916417 
L 299.536916 76.400723 
L 299.804906 74.695245 
L 299.894236 74.848048 
L 300.072896 76.085259 
L 300.340886 80.70878 
L 300.698206 92.45982 
L 301.234187 119.11654 
L 302.484807 185.230923 
L 302.752797 191.032506 
L 303.020787 193.004157 
L 303.110117 192.76263 
L 303.288778 191.027577 
L 303.556768 185.354152 
L 304.003418 169.738677 
L 305.254038 122.566929 
L 305.879349 108.405546 
L 306.236669 103.722875 
L 306.504659 102.56946 
L 306.593989 102.603964 
L 306.772649 103.19053 
L 307.040639 105.443141 
L 307.397959 111.269369 
L 307.75528 120.856522 
L 308.46992 149.716562 
L 309.09523 173.228499 
L 309.45255 180.996803 
L 309.72054 183.357855 
L 309.80987 183.44165 
L 309.8992 183.145903 
L 310.077861 181.331984 
L 310.524511 173.356656 
L 311.953791 140.232921 
L 312.221782 138.108467 
L 312.400442 137.926089 
L 312.579102 138.295774 
L 312.847092 139.878024 
L 313.204412 143.481216 
L 313.740392 151.772008 
L 314.544363 164.745471 
L 314.991013 168.19586 
L 315.259003 169.176756 
L 315.348333 169.221118 
L 315.437663 169.078173 
L 315.616323 168.146568 
L 315.973643 164.365928 
L 316.420293 156.44975 
L 317.134934 138.739395 
L 317.938904 118.825721 
L 318.296224 113.916311 
L 318.564214 112.595305 
L 318.653544 112.560801 
L 318.832204 113.24102 
L 319.100195 116.188638 
L 319.457515 123.340802 
L 319.993495 138.76897 
L 320.797465 162.798465 
L 321.333446 172.789806 
L 321.601436 174.717095 
L 321.780096 175.022701 
L 321.869426 174.815678 
L 322.048086 173.440451 
L 322.316076 169.37885 
L 322.852056 156.252584 
L 323.566697 132.025924 
L 324.638657 96.610145 
L 325.085307 88.718612 
L 325.353297 86.692741 
L 325.531957 86.436426 
L 325.710618 87.077213 
L 325.978608 88.969998 
L 326.335928 93.9287 
L 326.693248 102.05683 
L 327.229228 119.663673 
L 328.211859 153.304966 
L 328.747839 165.327108 
L 329.015829 167.535357 
L 329.105159 167.68816 
L 329.194489 167.560002 
L 329.373149 166.352366 
L 329.641139 162.295694 
L 330.7131 138.739395 
L 331.51707 123.217574 
L 332.05305 116.410449 
L 332.410371 114.123334 
L 332.589031 113.679713 
L 332.678361 113.763508 
L 332.857021 114.611318 
L 333.214341 117.92862 
L 333.571661 123.779494 
L 334.286301 140.799771 
L 335.179602 160.935255 
L 335.715582 168.462033 
L 335.894242 169.452787 
L 335.983572 169.49222 
L 336.251562 167.870537 
L 336.608882 163.942023 
L 337.055533 155.587152 
L 337.770173 137.6402 
L 338.484813 120.708648 
L 338.931463 114.724687 
L 339.110124 113.743791 
L 339.199454 113.729004 
L 339.378114 114.36979 
L 339.556774 115.858387 
L 339.914094 122.404268 
L 340.360744 135.993871 
L 341.611365 177.11758 
L 341.879355 180.735559 
L 342.058015 181.154535 
L 342.236675 179.981403 
L 342.504665 175.643771 
L 343.040645 162.147821 
L 344.737916 111.086992 
L 345.095236 106.221943 
L 345.363226 105.162181 
L 345.452556 105.172039 
L 345.631216 105.694526 
L 345.899207 107.444367 
L 346.256527 111.875652 
L 346.703177 120.481908 
L 347.685807 141.100447 
L 348.132458 145.004316 
L 348.311118 145.477512 
L 348.400448 145.502158 
L 348.489778 145.344426 
L 348.757768 143.481216 
L 349.204418 137.842294 
L 349.651068 132.375892 
L 350.008388 130.2958 
L 350.276378 129.857108 
L 350.455039 130.202147 
L 350.723029 131.611877 
L 351.169679 136.886044 
L 352.241639 150.608734 
L 352.68829 153.615501 
L 352.95628 154.177422 
L 353.04561 154.054194 
L 353.40293 152.136763 
L 353.76025 148.272327 
L 354.29623 139.296387 
L 355.278861 122.305685 
L 355.546851 120.4129 
L 355.636181 120.171373 
L 355.725511 120.210806 
L 355.904171 120.738223 
L 356.172161 123.054913 
L 356.618811 130.345092 
L 357.958762 156.356096 
L 358.405412 160.067729 
L 358.762732 161.295082 
L 359.120052 162.157679 
L 359.388043 162.310482 
L 359.566703 162.275978 
L 360.013353 161.605617 
L 360.192013 161.635191 
L 360.370673 161.847144 
L 361.085313 163.518118 
L 361.442633 163.523047 
L 362.157274 164.41029 
L 362.335934 163.966669 
L 362.514594 162.921694 
L 362.871914 158.70729 
L 363.675884 144.876159 
L 365.105165 120.550916 
L 365.194495 120.348822 
L 365.283825 120.407971 
L 365.462485 121.117766 
L 365.730475 124.0851 
L 366.087796 131.385138 
L 366.534446 145.620457 
L 367.427746 174.554434 
L 367.785066 179.537781 
L 367.963726 180.277151 
L 368.053056 180.16871 
L 368.231716 179.059656 
L 368.499707 174.943835 
L 368.857027 165.056006 
L 370.643628 107.814051 
L 371.000948 102.579318 
L 371.268938 101.218879 
L 371.358268 101.287887 
L 371.536928 102.461019 
L 371.804918 106.69021 
L 372.251568 119.05739 
L 372.787549 139.95689 
L 373.859509 185.383726 
L 374.216829 191.895103 
L 374.395489 193.018944 
L 374.484819 193.048519 
L 374.663479 191.835954 
L 374.931469 186.768811 
L 375.28879 174.376985 
L 376.89673 111.052488 
L 377.254051 104.136922 
L 377.522041 102.022327 
L 377.611371 101.859665 
L 377.700701 101.928673 
L 377.879361 102.85042 
L 378.147351 106.631061 
L 378.504671 115.927395 
L 379.040651 137.255728 
L 380.023282 178.152697 
L 380.380602 185.181632 
L 380.559262 186.0393 
L 380.648592 185.753411 
L 380.827252 183.865555 
L 381.095242 178.187201 
L 381.541892 161.832356 
L 383.417823 80.846796 
L 383.775143 75.769795 
L 383.953804 75.375465 
L 384.132464 76.390865 
L 384.400454 80.225726 
L 384.847104 92.06549 
L 385.740404 124.045667 
L 387.169685 171.562454 
L 387.616335 179.089231 
L 387.884325 180.937654 
L 388.062985 181.193968 
L 388.152315 181.07074 
L 388.330975 179.902537 
L 388.598966 175.993739 
L 389.134946 162.616088 
L 390.206906 134.672865 
L 390.742887 126.801049 
L 391.010877 125.056138 
L 391.189537 124.745603 
L 391.368197 124.844186 
L 391.546857 125.598342 
L 391.814847 129.171959 
L 392.261497 140.025898 
L 393.065468 159.569887 
L 393.512118 165.632714 
L 393.869438 167.840963 
L 393.958768 167.722664 
L 394.137428 166.50024 
L 394.405418 162.448497 
L 396.549339 118.559548 
L 396.906659 115.680938 
L 397.085319 115.414765 
L 397.353309 115.523206 
L 397.53197 115.932324 
L 397.79996 117.736384 
L 398.06795 120.881167 
L 398.5146 129.738809 
L 399.58656 154.182351 
L 400.211871 164.218054 
L 400.479861 166.012256 
L 400.569191 166.209421 
L 400.658521 166.16013 
L 400.747851 165.928461 
L 401.015841 163.823724 
L 401.462491 158.574203 
L 402.355792 143.471358 
L 402.891772 135.865714 
L 403.249092 133.302568 
L 403.785072 130.719705 
L 404.231723 129.250825 
L 404.499713 129.004369 
L 404.678373 129.329691 
L 404.857033 129.990195 
L 405.214353 132.292097 
L 405.661003 137.881727 
L 406.196983 147.838564 
L 407.179614 168.102206 
L 407.536934 172.193382 
L 407.804924 173.573538 
L 407.983584 173.706624 
L 408.162244 173.193995 
L 408.340904 172.178595 
L 408.608895 168.959874 
L 409.055545 160.39798 
L 409.948845 137.443035 
L 410.752815 118.26873 
L 411.110136 113.226233 
L 411.378126 111.55033 
L 411.467456 111.392597 
L 411.556786 111.530613 
L 411.735446 112.684029 
L 412.003436 116.558323 
L 412.360756 125.130075 
L 412.807406 140.681471 
L 413.790037 178.029469 
L 414.058027 182.278376 
L 414.236687 182.958596 
L 414.326017 182.82058 
L 414.504677 181.430566 
L 414.861997 176.166258 
L 415.308648 164.149046 
L 416.201948 138.359853 
L 416.737928 129.369124 
L 417.184578 124.725887 
L 417.452568 123.592187 
L 417.541898 123.616833 
L 417.720559 124.464643 
L 417.988549 127.515773 
L 418.435199 136.294548 
L 420.13247 177.373895 
L 420.40046 179.449057 
L 420.57912 179.789167 
L 420.75778 179.168097 
L 420.93644 177.916099 
L 421.29376 172.873601 
L 421.74041 162.142891 
L 422.365721 141.529281 
L 423.616341 97.438238 
L 424.062991 89.117871 
L 424.420312 86.234332 
L 424.598972 85.987876 
L 424.777632 86.92441 
L 425.045622 90.231854 
L 425.492272 100.006314 
L 426.117582 120.462192 
L 427.368203 160.526138 
L 427.814853 167.219893 
L 428.082843 168.895796 
L 428.172173 169.033811 
L 428.350833 168.481749 
L 428.618823 165.701721 
L 428.976144 159.210061 
L 429.601454 142.924224 
L 431.209395 95.17084 
L 431.566715 90.892357 
L 431.745375 90.128343 
L 431.834705 90.167776 
L 432.102695 91.143743 
L 432.370685 93.179472 
L 432.728005 98.384631 
L 433.263986 110.672945 
L 434.157286 135.77699 
L 434.961256 159.027683 
L 435.318576 164.612384 
L 435.675897 166.958649 
L 435.765227 167.101593 
L 435.854557 167.042444 
L 436.033217 166.012256 
L 436.301207 162.147821 
L 436.926517 146.305606 
L 437.819818 123.646408 
L 438.266468 117.189251 
L 438.445128 116.464669 
L 438.534458 116.563252 
L 438.713118 117.623014 
L 438.981108 120.826947 
L 439.427758 130.399312 
L 440.053069 150.40664 
L 440.767709 171.498375 
L 441.125029 177.378824 
L 441.303689 178.561814 
L 441.482349 178.670255 
L 441.661009 177.832303 
L 441.928999 174.381914 
L 442.37565 164.336353 
L 443.80493 128.935361 
L 444.16225 124.686454 
L 444.43024 123.602046 
L 444.608901 123.449243 
L 444.787561 123.764707 
L 445.055551 125.49483 
L 445.412871 129.807817 
L 445.948851 139.404828 
L 446.752822 159.116407 
L 447.288802 170.62099 
L 447.556792 172.986971 
L 447.735452 173.50453 
L 447.824782 173.430593 
L 448.003442 172.607429 
L 448.271432 169.625307 
L 448.718082 160.195886 
L 449.254063 145.26556 
L 450.147363 119.22991 
L 450.594013 111.895368 
L 450.862003 110.234253 
L 451.040663 110.051875 
L 451.219324 110.712378 
L 451.397984 112.294628 
L 451.665974 116.63226 
L 452.023294 126.589097 
L 453.452575 173.647474 
L 453.809895 177.339391 
L 453.988555 177.654855 
L 454.167215 176.708462 
L 454.435205 172.494059 
L 454.971185 158.081291 
L 456.311136 120.048145 
L 456.757786 113.364248 
L 457.025776 111.673558 
L 457.115106 111.565117 
L 457.204436 111.703132 
L 457.472426 113.709287 
L 457.740416 118.145502 
L 458.097737 127.959394 
L 459.616347 177.28517 
L 459.884337 179.552569 
L 459.973667 179.670868 
L 460.062997 179.394837 
L 460.241658 177.57106 
L 460.598978 169.748535 
L 461.402948 143.367846 
L 462.117588 124.745603 
L 462.474909 119.929846 
L 462.653569 119.185548 
L 462.742899 119.146115 
L 462.921559 119.727752 
L 463.189549 122.517638 
L 463.725529 131.399925 
L 465.15481 161.275365 
L 465.60146 164.612384 
L 465.86945 165.854524 
L 466.04811 165.928461 
L 466.22677 165.534131 
L 466.49476 163.73007 
L 466.85208 159.44173 
L 467.298731 151.471331 
L 467.924041 135.658691 
L 468.817341 112.807257 
L 469.174662 108.494271 
L 469.353322 108.070366 
L 469.531982 108.918176 
L 469.799972 112.516438 
L 470.425282 126.140546 
L 471.139922 148.671587 
L 471.765233 166.771342 
L 472.301213 175.870511 
L 472.569203 178.325216 
L 472.747863 178.758979 
L 472.926523 177.802729 
L 473.194513 173.470026 
L 473.641164 160.930326 
L 475.338434 107.616886 
L 475.606424 104.792496 
L 475.785084 104.348875 
L 475.874415 104.481961 
L 476.053075 105.625519 
L 476.321065 109.637828 
L 476.767715 121.625466 
L 478.375656 169.679527 
L 478.643646 172.183524 
L 478.822306 172.592641 
L 478.911636 172.464484 
L 479.179626 171.035037 
L 479.447616 168.003624 
L 479.983596 157.982708 
L 480.966227 139.744937 
L 481.412877 134.865101 
L 481.680867 133.63282 
L 481.859527 133.322285 
L 482.038187 133.672253 
L 482.306177 135.461526 
L 482.663498 140.656826 
L 483.110148 150.396781 
L 484.182108 174.372056 
L 484.539428 177.753437 
L 484.718088 178.004823 
L 484.807419 177.91117 
L 484.986079 176.954919 
L 485.254069 173.263003 
L 485.611389 164.587739 
L 487.48732 111.920014 
L 487.93397 106.138148 
L 488.20196 104.65941 
L 488.29129 104.477032 
L 488.38062 104.54604 
L 488.55928 105.147393 
L 488.82727 107.19791 
L 489.18459 112.634738 
L 489.631241 124.104817 
L 490.524541 156.361025 
L 491.149851 173.55875 
L 491.417841 177.147155 
L 491.596502 177.7978 
L 491.775162 177.05843 
L 491.953822 175.057205 
L 492.311142 167.791671 
L 493.829753 129.359266 
L 494.187073 126.140546 
L 494.365733 125.775791 
L 494.455063 125.889161 
L 494.633723 126.717254 
L 494.901713 129.7881 
L 495.616353 141.677155 
L 496.420324 153.935895 
L 496.777644 156.144144 
L 496.956304 156.341309 
L 497.134964 155.700522 
L 497.492284 153.033864 
L 498.117594 146.177448 
L 499.457545 128.851566 
L 499.725535 127.816449 
L 499.993525 127.678434 
L 500.261515 127.850953 
L 500.529506 128.890999 
L 502.226776 140.01111 
L 502.584096 140.962432 
L 502.762757 141.258179 
L 503.388067 142.993232 
L 503.924047 145.20641 
L 504.192037 145.615528 
L 504.728017 145.930992 
L 504.906677 146.276031 
L 505.621318 147.942076 
L 505.978638 147.685761 
L 506.246628 146.818235 
L 506.693278 144.117073 
L 507.229259 139.759725 
L 508.033229 132.716002 
L 508.301219 131.882979 
L 508.390549 131.873121 
L 508.569209 132.297026 
L 508.837199 133.652536 
L 509.283849 137.955664 
L 509.7305 144.81208 
L 510.44514 155.956837 
L 511.07045 162.892119 
L 511.60643 165.967894 
L 511.963751 166.850208 
L 512.142411 166.638256 
L 512.410401 165.93339 
L 513.035711 162.961127 
L 513.750351 157.943275 
L 514.286332 152.309283 
L 514.911642 144.087498 
L 515.536952 132.292097 
L 516.966233 101.687146 
L 517.323553 99.000772 
L 517.412883 98.828252 
L 517.502213 98.892331 
L 517.680873 99.759857 
L 517.948863 103.220105 
L 518.395513 112.757966 
L 520.182114 157.080678 
L 520.628764 161.743632 
L 520.896755 162.621017 
L 520.986085 162.670308 
L 521.164745 162.37949 
L 521.343405 161.423239 
L 521.700725 157.637669 
L 522.862015 143.56994 
L 523.308666 140.725834 
L 523.576656 140.29207 
L 523.755316 140.543456 
L 523.933976 141.351833 
L 524.201966 143.73753 
L 524.737946 151.890307 
L 525.631247 166.38687 
L 526.256557 173.612971 
L 526.435217 174.495284 
L 526.524547 174.539646 
L 526.703207 174.096025 
L 526.971197 171.892705 
L 527.328517 166.258713 
L 527.953828 150.988277 
L 529.204448 118.401816 
L 529.561768 114.700042 
L 529.740429 114.246562 
L 529.829759 114.246562 
L 530.008419 114.744404 
L 530.276409 116.336512 
L 530.633729 120.629782 
L 531.169709 130.86265 
L 532.86698 164.370857 
L 533.2243 167.68816 
L 533.49229 168.565544 
L 533.58162 168.545828 
L 533.67095 168.407812 
L 533.84961 167.495924 
L 534.206931 164.178621 
L 534.742911 156.262443 
L 536.440182 126.214483 
L 536.886832 122.601433 
L 537.065492 122.325402 
L 537.154822 122.463417 
L 537.333482 123.459101 
L 537.601472 127.057364 
L 538.048122 136.467068 
L 539.030753 165.918603 
L 539.566733 179.897608 
L 539.924053 183.919776 
L 540.102713 184.540846 
L 540.192043 184.476767 
L 540.370703 183.377572 
L 540.638693 179.734947 
L 540.996014 171.636391 
L 541.621324 150.524939 
L 542.514624 122.157811 
L 542.871944 116.173851 
L 543.139935 114.591601 
L 543.229265 114.502877 
L 543.318595 114.690184 
L 543.497255 115.981615 
L 543.854575 121.290285 
L 544.301225 131.567515 
L 545.819836 173.198924 
L 546.177156 177.112651 
L 546.355816 177.90624 
L 546.445146 177.940744 
L 546.623806 177.00421 
L 546.891796 173.677049 
L 547.338446 163.656134 
L 547.963757 141.307471 
L 549.214377 96.575641 
L 549.750357 85.539325 
L 550.018348 83.626824 
L 550.107678 83.64654 
L 550.286338 84.765452 
L 550.554328 89.004502 
L 550.911648 99.542976 
L 551.358298 120.802301 
L 552.608919 186.916685 
L 552.966239 195.30606 
L 553.144899 196.65664 
L 553.234229 196.666499 
L 553.412889 195.049745 
L 553.680879 189.085501 
L 554.216859 170.231589 
L 555.11016 138.221837 
L 555.55681 128.053048 
L 555.8248 125.297665 
L 556.09279 124.711099 
L 556.27145 125.174437 
L 556.45011 126.209554 
L 556.718101 129.16703 
L 557.075421 135.998801 
L 557.790061 154.69498 
L 558.415371 170.044282 
L 558.951352 178.53224 
L 559.130012 179.360333 
L 559.219342 179.291325 
L 559.398002 178.463232 
L 559.576662 176.762683 
L 559.933982 169.329559 
L 560.469962 151.269237 
L 561.899243 100.898486 
L 562.345893 92.612623 
L 562.613883 90.867712 
L 562.703213 90.749413 
L 562.881873 91.419774 
L 563.149863 94.303313 
L 563.507184 100.504155 
L 563.953834 112.526297 
L 564.489814 132.430113 
L 565.472444 169.585874 
L 565.919095 178.92657 
L 566.187085 180.95737 
L 566.276415 181.134819 
L 566.455075 180.602473 
L 566.633735 178.808271 
L 566.991055 171.92228 
L 568.777656 130.670414 
L 569.581626 119.027816 
L 570.028277 115.212671 
L 570.206937 114.749333 
L 570.296267 114.862703 
L 570.474927 115.695726 
L 570.742917 118.525045 
L 571.189567 127.072151 
L 571.814877 144.600128 
L 572.708178 170.083715 
L 573.154828 177.359107 
L 573.422818 178.606176 
L 573.512148 178.611106 
L 573.690808 177.714004 
L 573.958798 174.579079 
L 574.405448 165.578493 
L 575.120089 145.033891 
L 575.834729 127.032718 
L 576.460039 117.282905 
L 576.81736 113.97546 
L 576.99602 113.408611 
L 577.17468 113.433256 
L 577.35334 113.74872 
L 577.71066 115.153522 
L 578.15731 118.199722 
L 578.51463 121.689544 
L 579.943911 141.184242 
L 580.837211 149.080704 
L 581.015871 149.327161 
L 581.283862 149.189145 
L 581.819842 149.746136 
L 581.998502 149.61305 
L 582.534482 148.582862 
L 582.891802 147.311148 
L 583.338452 145.852126 
L 583.606443 145.349355 
L 583.785103 145.37893 
L 584.053093 146.034504 
L 584.857063 148.834248 
L 585.393043 149.243366 
L 586.197014 150.633379 
L 586.465004 150.702387 
L 586.643664 150.6876 
L 586.911654 151.259379 
L 587.179644 152.540952 
L 587.894285 156.513828 
L 588.072945 156.55819 
L 588.340935 155.838538 
L 588.519595 154.635831 
L 588.966245 149.381381 
L 589.591555 138.709821 
L 590.395526 124.829398 
L 590.752846 122.019796 
L 590.931506 121.847276 
L 591.110166 122.512709 
L 591.288826 124.065384 
L 591.646146 130.246509 
L 593.164757 162.892119 
L 593.522077 166.869924 
L 593.611407 167.096664 
L 593.700737 166.998082 
L 593.879397 165.829879 
L 594.326047 159.816343 
L 594.951358 147.927289 
L 595.755328 130.611265 
L 596.023318 128.141772 
L 596.112648 127.87067 
L 596.201978 127.929819 
L 596.380638 128.807204 
L 596.737958 132.913167 
L 597.363269 144.205797 
L 598.256569 160.619791 
L 598.703219 166.460807 
L 599.060539 168.994378 
L 599.2392 169.285197 
L 599.41786 168.999307 
L 599.68585 167.279042 
L 600.04317 162.847757 
L 600.66848 150.929127 
L 601.561781 131.360492 
L 601.919101 128.181205 
L 602.187091 127.515773 
L 602.276421 127.624213 
L 602.455081 128.43259 
L 602.723071 131.118965 
L 603.080391 137.497255 
L 604.777662 174.288261 
L 605.045652 176.314132 
L 605.134982 176.476793 
L 605.224312 176.402857 
L 605.402972 175.500826 
L 605.670962 172.464484 
L 606.296273 161.955585 
L 607.546893 137.69442 
L 608.082874 128.955078 
L 608.440194 126.529947 
L 608.618854 126.22927 
L 608.797514 126.584168 
L 609.154834 128.348795 
L 609.512154 131.454145 
L 610.048134 138.862624 
L 610.405455 144.3586 
L 610.405455 144.3586 
" clip-path="url(#p447fb02f3b)" style="fill: none; stroke: #2ca02c; stroke-width: 1.7; stroke-linecap: square"/>
   </g>
   <g id="patch_3">
    <path d="M 47.72 346.84 
L 47.72 26.88 
" style="fill: none; stroke: #000000; stroke-width: 0.8; stroke-linejoin: miter; stroke-linecap: square"/>
   </g>
   <g id="patch_4">
    <path d="M 637.2 346.84 
L 637.2 26.88 
" style="fill: none; stroke: #000000; stroke-width: 0.8; stroke-linejoin: miter; stroke-linecap: square"/>
   </g>
   <g id="patch_5">
    <path d="M 47.72 346.84 
L 637.2 346.84 
" style="fill: none; stroke: #000000; stroke-width: 0.8; stroke-linejoin: miter; stroke-linecap: square"/>
   </g>
   <g id="patch_6">
    <path d="M 47.72 26.88 
L 637.2 26.88 
" style="fill: none; stroke: #000000; stroke-width: 0.8; stroke-linejoin: miter; stroke-linecap: square"/>
   </g>
   <g id="text_17">
    <!-- Phase 4: tree density under two policies -->
    <g transform="translate(222.098125 20.88) scale(0.12 -0.12)">
     <defs>
      <path id="DejaVuSans-50" d="M 1259 4147 
L 1259 2394 
L 2053 2394 
Q 2494 2394 2734 2622 
Q 2975 2850 2975 3272 
Q 2975 3691 2734 3919 
Q 2494 4147 2053 4147 
L 1259 4147 
z
M 628 4666 
L 2053 4666 
Q 2838 4666 3239 4311 
Q 3641 3956 3641 3272 
Q 3641 2581 3239 2228 
Q 2838 1875 2053 1875 
L 1259 1875 
L 1259 0 
L 628 0 
L 628 4666 
z
" transform="scale(0.015625)"/>
      <path id="DejaVuSans-68" d="M 3513 2113 
L 3513 0 
L 2938 0 
L 2938 2094 
Q 2938 2591 2744 2837 
Q 2550 3084 2163 3084 
Q 1697 3084 1428 2787 
Q 1159 2491 1159 1978 
L 1159 0 
L 581 0 
L 581 4863 
L 1159 4863 
L 1159 2956 
Q 1366 3272 1645 3428 
Q 1925 3584 2291 3584 
Q 2894 3584 3203 3211 
Q 3513 2838 3513 2113 
z
" transform="scale(0.015625)"/>
      <path id="DejaVuSans-61" d="M 2194 1759 
Q 1497 1759 1228 1600 
Q 959 1441 959 1056 
Q 959 750 1161 570 
Q 1363 391 1709 391 
Q 2188 391 2477 730 
Q 2766 1069 2766 1631 
L 2766 1759 
L 2194 1759 
z
M 3341 1997 
L 3341 0 
L 2766 0 
L 2766 531 
Q 2569 213 2275 61 
Q 1981 -91 1556 -91 
Q 1019 -91 701 211 
Q 384 513 384 1019 
Q 384 1609 779 1909 
Q 1175 2209 1959 2209 
L 2766 2209 
L 2766 2266 
Q 2766 2663 2505 2880 
Q 2244 3097 1772 3097 
Q 1472 3097 1187 3025 
Q 903 2953 641 2809 
L 641 3341 
Q 956 3463 1253 3523 
Q 1550 3584 1831 3584 
Q 2591 3584 2966 3190 
Q 3341 2797 3341 1997 
z
" transform="scale(0.015625)"/>
      <path id="DejaVuSans-3a" d="M 750 794 
L 1409 794 
L 1409 0 
L 750 0 
L 750 794 
z
M 750 3309 
L 1409 3309 
L 1409 2516 
L 750 2516 
L 750 3309 
z
" transform="scale(0.015625)"/>
      <path id="DejaVuSans-75" d="M 544 1381 
L 544 3500 
L 1119 3500 
L 1119 1403 
Q 1119 906 1312 657 
Q 1506 409 1894 409 
Q 2359 409 2629 706 
Q 2900 1003 2900 1516 
L 2900 3500 
L 3475 3500 
L 3475 0 
L 2900 0 
L 2900 538 
Q 2691 219 2414 64 
Q 2138 -91 1772 -91 
Q 1169 -91 856 284 
Q 544 659 544 1381 
z
M 1991 3584 
L 1991 3584 
z
" transform="scale(0.015625)"/>
      <path id="DejaVuSans-6f" d="M 1959 3097 
Q 1497 3097 1228 2736 
Q 959 2375 959 1747 
Q 959 1119 1226 758 
Q 1494 397 1959 397 
Q 2419 397 2687 759 
Q 2956 1122 2956 1747 
Q 2956 2369 2687 2733 
Q 2419 3097 1959 3097 
z
M 1959 3584 
Q 2709 3584 3137 3096 
Q 3566 2609 3566 1747 
Q 3566 888 3137 398 
Q 2709 -91 1959 -91 
Q 1206 -91 779 398 
Q 353 888 353 1747 
Q 353 2609 779 3096 
Q 1206 3584 1959 3584 
z
" transform="scale(0.015625)"/>
      <path id="DejaVuSans-6c" d="M 603 4863 
L 1178 4863 
L 1178 0 
L 603 0 
L 603 4863 
z
" transform="scale(0.015625)"/>
      <path id="DejaVuSans-63" d="M 3122 3366 
L 3122 2828 
Q 2878 2963 2633 3030 
Q 2388 3097 2138 3097 
Q 1578 3097 1268 2742 
Q 959 2388 959 1747 
Q 959 1106 1268 751 
Q 1578 397 2138 397 
Q 2388 397 2633 464 
Q 2878 531 3122 666 
L 3122 134 
Q 2881 22 2623 -34 
Q 2366 -91 2075 -91 
Q 1284 -91 818 406 
Q 353 903 353 1747 
Q 353 2603 823 3093 
Q 1294 3584 2113 3584 
Q 2378 3584 2631 3529 
Q 2884 3475 3122 3366 
z
" transform="scale(0.015625)"/>
     </defs>
     <use xlink:href="#DejaVuSans-50"/>
     <use xlink:href="#DejaVuSans-68" transform="translate(60.302734 0)"/>
     <use xlink:href="#DejaVuSans-61" transform="translate(123.681641 0)"/>
     <use xlink:href="#DejaVuSans-73" transform="translate(184.960938 0)"/>
     <use xlink:href="#DejaVuSans-65" transform="translate(237.060547 0)"/>
     <use xlink:href="#DejaVuSans-20" transform="translate(298.583984 0)"/>
     <use xlink:href="#DejaVuSans-34" transform="translate(330.371094 0)"/>
     <use xlink:href="#DejaVuSans-3a" transform="translate(393.994141 0)"/>
     <use xlink:href="#DejaVuSans-20" transform="translate(427.685547 0)"/>
     <use xlink:href="#DejaVuSans-74" transform="translate(459.472656 0)"/>
     <use xlink:href="#DejaVuSans-72" transform="translate(498.681641 0)"/>
     <use xlink:href="#DejaVuSans-65" transform="translate(537.544922 0)"/>
     <use xlink:href="#DejaVuSans-65" transform="translate(599.068359 0)"/>
     <use xlink:href="#DejaVuSans-20" transform="translate(660.591797 0)"/>
     <use xlink:href="#DejaVuSans-64" transform="translate(692.378906 0)"/>
     <use xlink:href="#DejaVuSans-65" transform="translate(755.855469 0)"/>
     <use xlink:href="#DejaVuSans-6e" transform="translate(817.378906 0)"/>
     <use xlink:href="#DejaVuSans-73" transform="translate(880.757812 0)"/>
     <use xlink:href="#DejaVuSans-69" transform="translate(932.857422 0)"/>
     <use xlink:href="#DejaVuSans-74" transform="translate(960.640625 0)"/>
     <use xlink:href="#DejaVuSans-79" transform="translate(999.849609 0)"/>
     <use xlink:href="#DejaVuSans-20" transform="translate(1059.029297 0)"/>
     <use xlink:href="#DejaVuSans-75" transform="translate(1090.816406 0)"/>
     <use xlink:href="#DejaVuSans-6e" transform="translate(1154.195312 0)"/>
     <use xlink:href="#DejaVuSans-64" transform="translate(1217.574219 0)"/>
     <use xlink:href="#DejaVuSans-65" transform="translate(1281.050781 0)"/>
     <use xlink:href="#DejaVuSans-72" transform="translate(1342.574219 0)"/>
     <use xlink:href="#DejaVuSans-20" transform="translate(1383.6875 0)"/>
     <use xlink:href="#DejaVuSans-74" transform="translate(1415.474609 0)"/>
     <use xlink:href="#DejaVuSans-77" transform="translate(1454.683594 0)"/>
     <use xlink:href="#DejaVuSans-6f" transform="translate(1536.470703 0)"/>
     <use xlink:href="#DejaVuSans-20" transform="translate(1597.652344 0)"/>
     <use xlink:href="#DejaVuSans-70" transform="translate(1629.439453 0)"/>
     <use xlink:href="#DejaVuSans-6f" transform="translate(1692.916016 0)"/>
     <use xlink:href="#DejaVuSans-6c" transform="translate(1754.097656 0)"/>
     <use xlink:href="#DejaVuSans-69" transform="translate(1781.880859 0)"/>
     <use xlink:href="#DejaVuSans-63" transform="translate(1809.664062 0)"/>
     <use xlink:href="#DejaVuSans-69" transform="translate(1864.644531 0)"/>
     <use xlink:href="#DejaVuSans-65" transform="translate(1892.427734 0)"/>
     <use xlink:href="#DejaVuSans-73" transform="translate(1953.951172 0)"/>
    </g>
   </g>
   <g id="legend_1">
    <g id="patch_7">
     <path d="M 510.123437 64.23625 
L 630.2 64.23625 
Q 632.2 64.23625 632.2 62.23625 
L 632.2 33.88 
Q 632.2 31.88 630.2 31.88 
L 510.123437 31.88 
Q 508.123437 31.88 508.123437 33.88 
L 508.123437 62.23625 
Q 508.123437 64.23625 510.123437 64.23625 
z
" style="fill: #ffffff; opacity: 0.8; stroke: #cccccc; stroke-linejoin: miter"/>
    </g>
    <g id="line2d_31">
     <path d="M 512.123437 39.978437 
L 522.123437 39.978437 
L 532.123437 39.978437 
" style="fill: none; stroke: #d62728; stroke-width: 1.7; stroke-linecap: square"/>
    </g>
    <g id="text_18">
     <!-- laissez-faire -->
     <g transform="translate(540.123437 43.478437) scale(0.1 -0.1)">
      <defs>
       <path id="DejaVuSans-7a" d="M 353 3500 
L 3084 3500 
L 3084 2975 
L 922 459 
L 3084 459 
L 3084 0 
L 275 0 
L 275 525 
L 2438 3041 
L 353 3041 
L 353 3500 
z
" transform="scale(0.015625)"/>
       <path id="DejaVuSans-2d" d="M 313 2009 
L 1997 2009 
L 1997 1497 
L 313 1497 
L 313 2009 
z
" transform="scale(0.015625)"/>
       <path id="DejaVuSans-66" d="M 2375 4863 
L 2375 4384 
L 1825 4384 
Q 1516 4384 1395 4259 
Q 1275 4134 1275 3809 
L 1275 3500 
L 2222 3500 
L 2222 3053 
L 1275 3053 
L 1275 0 
L 697 0 
L 697 3053 
L 147 3053 
L 147 3500 
L 697 3500 
L 697 3744 
Q 697 4328 969 4595 
Q 1241 4863 1831 4863 
L 2375 4863 
z
" transform="scale(0.015625)"/>
      </defs>
      <use xlink:href="#DejaVuSans-6c"/>
      <use xlink:href="#DejaVuSans-61" transform="translate(27.783203 0)"/>
      <use xlink:href="#DejaVuSans-69" transform="translate(89.0625 0)"/>
      <use xlink:href="#DejaVuSans-73" transform="translate(116.845703 0)"/>
      <use xlink:href="#DejaVuSans-73" transform="translate(168.945312 0)"/>
      <use xlink:href="#DejaVuSans-65" transform="translate(221.044922 0)"/>
      <use xlink:href="#DejaVuSans-7a" transform="translate(282.568359 0)"/>
      <use xlink:href="#DejaVuSans-2d" transform="translate(335.058594 0)"/>
      <use xlink:href="#DejaVuSans-66" transform="translate(371.142578 0)"/>
      <use xlink:href="#DejaVuSans-61" transform="translate(406.347656 0)"/>
      <use xlink:href="#DejaVuSans-69" transform="translate(467.626953 0)"/>
      <use xlink:href="#DejaVuSans-72" transform="translate(495.410156 0)"/>
      <use xlink:href="#DejaVuSans-65" transform="translate(534.273438 0)"/>
     </g>
    </g>
    <g id="line2d_32">
     <path d="M 512.123437 54.656563 
L 522.123437 54.656563 
L 532.123437 54.656563 
" style="fill: none; stroke: #2ca02c; stroke-width: 1.7; stroke-linecap: square"/>
    </g>
    <g id="text_19">
     <!-- adaptive thinning -->
     <g transform="translate(540.123437 58.156563) scale(0.1 -0.1)">
      <defs>
       <path id="DejaVuSans-76" d="M 191 3500 
L 800 3500 
L 1894 563 
L 2988 3500 
L 3597 3500 
L 2284 0 
L 1503 0 
L 191 3500 
z
" transform="scale(0.015625)"/>
       <path id="DejaVuSans-67" d="M 2906 1791 
Q 2906 2416 2648 2759 
Q 2391 3103 1925 3103 
Q 1463 3103 1205 2759 
Q 947 2416 947 1791 
Q 947 1169 1205 825 
Q 1463 481 1925 481 
Q 2391 481 2648 825 
Q 2906 1169 2906 1791 
z
M 3481 434 
Q 3481 -459 3084 -895 
Q 2688 -1331 1869 -1331 
Q 1566 -1331 1297 -1286 
Q 1028 -1241 775 -1147 
L 775 -588 
Q 1028 -725 1275 -790 
Q 1522 -856 1778 -856 
Q 2344 -856 2625 -561 
Q 2906 -266 2906 331 
L 2906 616 
Q 2728 306 2450 153 
Q 2172 0 1784 0 
Q 1141 0 747 490 
Q 353 981 353 1791 
Q 353 2603 747 3093 
Q 1141 3584 1784 3584 
Q 2172 3584 2450 3431 
Q 2728 3278 2906 2969 
L 2906 3500 
L 3481 3500 
L 3481 434 
z
" transform="scale(0.015625)"/>
      </defs>
      <use xlink:href="#DejaVuSans-61"/>
      <use xlink:href="#DejaVuSans-64" transform="translate(61.279297 0)"/>
      <use xlink:href="#DejaVuSans-61" transform="translate(124.755859 0)"/>
      <use xlink:href="#DejaVuSans-70" transform="translate(186.035156 0)"/>
      <use xlink:href="#DejaVuSans-74" transform="translate(249.511719 0)"/>
      <use xlink:href="#DejaVuSans-69" transform="translate(288.720703 0)"/>
      <use xlink:href="#DejaVuSans-76" transform="translate(316.503906 0)"/>
      <use xlink:href="#DejaVuSans-65" transform="translate(375.683594 0)"/>
      <use xlink:href="#DejaVuSans-20" transform="translate(437.207031 0)"/>
      <use xlink:href="#DejaVuSans-74" transform="translate(468.994141 0)"/>
      <use xlink:href="#DejaVuSans-68" transform="translate(508.203125 0)"/>
      <use xlink:href="#DejaVuSans-69" transform="translate(571.582031 0)"/>
      <use xlink:href="#DejaVuSans-6e" transform="translate(599.365234 0)"/>
      <use xlink:href="#DejaVuSans-6e" transform="translate(662.744141 0)"/>
      <use xlink:href="#DejaVuSans-69" transform="translate(726.123047 0)"/>
      <use xlink:href="#DejaVuSans-6e" transform="translate(753.90625 0)"/>
      <use xlink:href="#DejaVuSans-67" transform="translate(817.285156 0)"/>
     </g>
    </g>
   </g>
  </g>
 </g>
 <defs>
  <clipPath id="p447fb02f3b">
   <rect x="47.72" y="26.88" width="589.48" height="319.96"/>
  </clipPath>
 </defs>
</svg>
